<svg width="72" height="72" viewBox="0 0 72 72" fill="none" xmlns="http://www.w3.org/2000/svg">
<g clip-path="url(#clip0_1029_1199)">
<path d="M2.25359 3.37172V68.6237C2.24934 69.2445 2.75108 69.7505 3.37188 69.7505H68.6239C68.9227 69.7505 69.2093 69.6318 69.4206 69.4205C69.632 69.2092 69.7507 68.9226 69.7507 68.6237V17.9945C69.7498 17.696 69.6305 17.41 69.419 17.1994L54.7919 2.57234C54.5803 2.36653 54.2963 2.25202 54.0011 2.25343H3.3166C3.17308 2.25729 3.03173 2.28939 2.90062 2.3479C2.7695 2.40641 2.65121 2.49018 2.55249 2.59443C2.45377 2.69868 2.37656 2.82136 2.32527 2.95546C2.27399 3.08956 2.24963 3.23245 2.25359 3.37597V3.37172ZM4.49867 4.49851H52.8743V7.81937C52.853 9.3416 55.1491 9.3416 55.1279 7.81937V6.09303L65.9068 16.872H55.1236V12.3946C55.1236 12.0957 55.0049 11.8091 54.7936 11.5978C54.5823 11.3865 54.2957 11.2678 53.9968 11.2678C53.698 11.2678 53.4114 11.3865 53.2001 11.5978C52.9887 11.8091 52.87 12.0957 52.87 12.3946V17.9988C52.87 18.6196 53.376 19.1256 53.9968 19.1256H67.4971V67.5012H4.49867V4.49851ZM36.0021 10.124C32.0945 10.124 28.9182 13.3003 28.9182 17.2079V19.7634C28.9182 22.3231 30.2831 24.564 32.3199 25.8098V27.1492H27.4938C25.9758 27.1492 24.8277 27.7572 24.2962 28.6289C23.7647 29.4963 23.8157 30.368 23.8157 30.8272V33.7101C23.8455 35.1771 26.0311 35.1771 26.0651 33.7101V30.8272C26.0651 30.368 26.1076 29.9768 26.2139 29.7982C26.3202 29.6196 26.4563 29.3985 27.4895 29.3985H32.8811L35.0667 32.3452C35.1703 32.4862 35.3053 32.601 35.4611 32.6807C35.6168 32.7605 35.7889 32.8028 35.9639 32.8045C36.1388 32.8061 36.3117 32.767 36.4689 32.6903C36.6261 32.6135 36.7633 32.5012 36.8695 32.3622L39.1231 29.3985H44.519C45.5437 29.3985 45.6755 29.6196 45.7904 29.8152C45.9175 30.1367 45.9712 30.4824 45.9477 30.8272V39.3739H26.0608V38.2088C26.0948 36.6781 23.7775 36.6781 23.8072 38.2088V40.5049C23.8115 41.1214 24.3132 41.6232 24.9298 41.6232H47.0702C47.3669 41.6221 47.6511 41.504 47.8612 41.2947C48.0714 41.0853 48.1905 40.8015 48.1928 40.5049V30.8272C48.1928 30.402 48.2353 29.5218 47.7123 28.6502C47.185 27.7785 46.0412 27.1492 44.5147 27.1492H39.6802V25.8056C41.7211 24.564 43.0818 22.3189 43.0818 19.7676V17.2079C43.0818 13.3003 39.9055 10.124 36.0021 10.124ZM36.0021 12.3733C38.6979 12.3733 40.8367 14.5078 40.8367 17.2079V19.7634C40.8367 22.4634 38.6979 24.598 36.0021 24.598C35.3658 24.6031 34.7349 24.4815 34.146 24.2403C33.5571 23.9992 33.0222 23.6433 32.5722 23.1933C32.1222 22.7434 31.7663 22.2084 31.5252 21.6195C31.284 21.0307 31.1624 20.3997 31.1675 19.7634V17.2079C31.1675 14.5078 33.3021 12.3733 36.0021 12.3733ZM36.0021 26.8473C36.4869 26.8473 36.9673 26.8005 37.4308 26.7027V27.9061L35.9851 29.8067L34.5734 27.9061V26.7027C35.0369 26.8005 35.5089 26.8473 36.0021 26.8473ZM16.8764 48.3754H59.6265C61.1318 48.3754 61.1318 46.1219 59.6265 46.1219H16.8169C15.2564 46.2026 15.3712 48.4562 16.8764 48.3754ZM12.3735 55.1277H37.1077C38.6384 55.1617 38.6384 52.8444 37.1077 52.8741H12.3182C10.796 52.9762 10.9023 55.1702 12.3735 55.1277ZM41.6489 55.1277H59.6265C61.1615 55.1617 61.1615 52.8444 59.6265 52.8741H41.5893C40.0671 52.9847 40.1776 55.1702 41.6489 55.1277ZM12.3735 61.8672H59.6265C61.17 61.999 61.3018 59.6561 59.6903 59.6221H12.3225C10.8853 59.7965 10.9831 61.8332 12.3735 61.8672Z" fill="#93A6E6"/>
</g>
<defs>
<clipPath id="clip0_1029_1199">
<rect width="72" height="72" fill="white"/>
</clipPath>
</defs>
</svg>
