<svg width="72" height="72" viewBox="0 0 72 72" fill="none" xmlns="http://www.w3.org/2000/svg">
<g clip-path="url(#clip0_1029_1208)">
<path d="M10.1199 2.24512C9.82179 2.24736 9.53672 2.36766 9.32712 2.57965C9.11752 2.79164 9.00047 3.07805 9.00161 3.37616V59.5755C8.96759 61.1063 11.285 61.1063 11.2509 59.5755V4.4987H50.6249V13.5003C50.6249 14.1211 51.1352 14.6228 51.7517 14.6228H54.0393C55.5701 14.6569 55.5701 12.3395 54.0393 12.3693H52.8743V6.09748L59.1546 12.3778H58.4317C56.901 12.3437 56.901 14.6611 58.4317 14.6271H60.7448V67.5014H11.2509V64.1295C11.285 62.5987 8.96759 62.5987 8.99735 64.1295V68.6324C9.00161 69.249 9.50335 69.7507 10.1199 69.7507H61.8759C62.1725 69.7496 62.4568 69.6315 62.6669 69.4222C62.8771 69.2128 62.9962 68.929 62.9984 68.6324V13.5003C63.0003 13.2029 62.8841 12.9169 62.6753 12.7052L52.5426 2.58103C52.4382 2.47502 52.3137 2.39076 52.1765 2.3331C52.0393 2.27545 51.8921 2.24554 51.7432 2.24512H10.1199ZM46.122 11.251C47.6273 11.251 47.6273 8.99738 46.122 8.99738H16.8211C15.2649 9.06966 15.3754 11.3232 16.8722 11.251H46.122ZM46.122 15.7496C47.589 15.7156 47.589 13.5343 46.122 13.5003H16.8211C15.2309 13.5428 15.3414 15.8602 16.8722 15.7539L46.122 15.7496ZM43.8684 42.7502C45.4034 42.7842 45.4034 40.4668 43.8684 40.4966H37.1332V27.9658C38.7022 27.5533 39.9353 26.316 40.3435 24.747H45.2291C45.2291 24.747 40.8282 31.7246 40.6666 32.0392C40.5051 32.3539 40.5391 32.8089 40.6539 33.3021C40.7687 33.7911 40.994 34.4502 41.449 35.3771C41.7552 36.0022 42.1421 36.6527 42.6821 37.2097C43.2264 37.7625 43.9917 38.2515 44.9272 38.2472H49.4344C50.3783 38.2472 51.1735 37.771 51.739 37.2183C52.3045 36.6655 52.7042 36.0149 53.0274 35.3856C53.6652 34.1228 53.9713 32.9024 53.9713 32.9024C54.0134 32.736 54.0169 32.5621 53.9815 32.394C53.9462 32.226 53.8729 32.0683 53.7672 31.9329L48.3884 23.314C48.0652 22.8421 47.7931 22.4891 47.2191 22.5019H40.3435C40.1698 21.8208 39.839 21.1898 39.3775 20.6596C38.916 20.1295 38.3366 19.7148 37.686 19.4489C37.5283 19.3847 37.3585 19.3557 37.1885 19.3639C35.9341 19.4702 35.7683 20.9967 36.8355 21.5409C36.9886 21.6175 37.3033 21.7705 37.4946 21.9406C37.7346 22.1502 37.9265 22.4091 38.0572 22.6998C38.1878 22.9904 38.2541 23.3058 38.2515 23.6244C38.2555 23.9205 38.2 24.2144 38.0883 24.4887C37.9766 24.7629 37.8109 25.012 37.6011 25.221C37.3913 25.43 37.1417 25.5947 36.867 25.7054C36.5923 25.816 36.2982 25.8704 36.0021 25.8653C35.614 25.868 35.2318 25.7696 34.8932 25.5799C34.5546 25.3902 34.2712 25.1155 34.0708 24.7831C33.8705 24.4506 33.7601 24.0717 33.7506 23.6837C33.7411 23.2957 33.8327 22.9118 34.0164 22.5699C34.6968 21.2518 32.7366 20.21 32.0265 21.5154C31.8603 21.8279 31.7318 22.1591 31.6438 22.5019L24.6704 22.5147C24.2155 22.5061 23.9603 22.7783 23.803 23.0249C23.803 23.0249 18.2796 31.8437 18.1478 32.069C18.0172 32.3725 17.9933 32.7112 18.0797 33.03C18.1605 33.3404 18.3901 34.2206 18.9557 35.3729C19.2618 36.0022 19.6487 36.6527 20.1888 37.2097C20.733 37.7625 21.5026 38.2515 22.4338 38.2472H26.9325C27.8042 38.2175 28.6297 37.8483 29.2329 37.2183C29.8026 36.6655 30.2108 36.0149 30.5297 35.3814C31.1123 34.2418 31.3631 33.2979 31.4269 33.0427C31.4907 32.7876 31.5332 32.4049 31.3844 32.1328C29.8565 29.665 28.3215 27.2016 26.7794 24.7427H31.6608C32.0732 26.316 33.3106 27.5533 34.8796 27.9658V40.4966H28.0763C26.5541 40.6071 26.6646 42.7884 28.1316 42.7502H43.8684ZM24.7555 25.742L28.3442 31.495H21.1582L24.7555 25.742ZM47.2531 25.7505L50.8418 31.495H43.6558L47.2531 25.7505ZM28.7481 33.7443C28.391 34.7903 28.1273 35.9979 27.0005 35.9979H22.5019C21.3751 35.9979 21.0732 34.6798 20.7373 33.7443H28.7481ZM51.2542 33.7443C50.9864 34.7436 50.6249 35.9979 49.5024 35.9979H44.9995C43.8769 35.9979 43.575 34.5522 43.2391 33.7443H51.2542ZM55.1236 49.5024C56.5948 49.4684 56.5948 47.2488 55.1236 47.2488H16.8254C15.2351 47.2914 15.3457 49.6087 16.8764 49.5024H55.1236ZM55.1236 54.0054C56.6288 54.0054 56.6288 51.7518 55.1236 51.7518H16.8254C15.2691 51.824 15.3797 54.0776 16.8764 54.0054H55.1236ZM55.1236 58.4955C56.6714 58.6316 56.7989 56.2845 55.1874 56.2504H16.8211C15.503 56.2759 15.5455 58.487 16.8722 58.4955H55.1236ZM16.8722 60.7491C15.3712 60.7449 15.3712 62.9984 16.8722 62.9984H55.1279C56.6288 62.9984 56.6288 60.7449 55.1279 60.7449L16.8722 60.7491Z" fill="#93A6E6"/>
</g>
<defs>
<clipPath id="clip0_1029_1208">
<rect width="72" height="72" fill="white"/>
</clipPath>
</defs>
</svg>
