<svg width="72" height="72" viewBox="0 0 72 72" fill="none" xmlns="http://www.w3.org/2000/svg">
<g clip-path="url(#clip0_1029_1289)">
<path d="M56.7352 47.0915C58.9515 45.1443 60.5332 42.5773 61.276 39.7221C62.0188 36.8668 61.8886 33.8545 60.9022 31.074C60.4557 29.5518 58.1724 30.3597 58.7804 31.8224C59.7822 34.6383 59.7419 37.7198 58.667 40.5086C57.5921 43.2973 55.5536 45.6087 52.921 47.0237C50.2885 48.4387 47.2361 48.8637 44.3171 48.2217C41.3981 47.5796 38.8058 45.9131 37.0099 43.524C36.0209 42.2127 35.3005 40.7191 34.8898 39.1289C34.4791 37.5386 34.3862 35.883 34.6165 34.2567C34.8467 32.6305 35.3957 31.0657 36.2318 29.6521C37.0678 28.2384 38.1747 27.0035 39.4888 26.0183C41.9938 24.1321 45.1168 23.2572 48.2371 23.5676C51.3575 23.878 54.2469 25.3509 56.3312 27.6937C57.3304 28.8162 59.01 27.3195 58.015 26.2012C56.8728 24.9207 55.5141 23.8513 54.0011 23.0419V3.37191C54 3.0738 53.8808 2.78829 53.6696 2.57789C53.4584 2.3675 53.1724 2.24937 52.8743 2.24937L15.8177 2.24512C15.4542 2.27064 15.1125 2.42787 14.8567 2.68733C14.7376 2.81489 2.65331 14.8907 2.65331 14.8907C2.52038 15.0026 2.41513 15.1438 2.34579 15.3031C2.27646 15.4624 2.24491 15.6356 2.25361 15.8092V68.6282C2.25361 69.249 2.75961 69.7507 3.38041 69.7507H52.8785C53.1767 69.7507 53.4626 69.6326 53.6738 69.4222C53.885 69.2118 54.0042 68.9263 54.0053 68.6282V57.339C54.0266 55.821 51.7347 55.821 51.7518 57.339V67.5014H4.50295V16.8722H7.87908C9.40982 16.9062 9.40982 14.5888 7.87908 14.6186H6.10172L14.6271 6.09748V14.6271H12.4075C10.8768 14.5931 10.8768 16.9104 12.4075 16.8764H15.7539C16.0512 16.8753 16.3361 16.7567 16.5464 16.5464C16.7567 16.3361 16.8753 16.0513 16.8764 15.7539V4.4987H51.7518V22.0682C49.4786 21.2901 47.0496 21.0798 44.6766 21.4556C42.3035 21.8313 40.0583 22.7817 38.1367 24.224C36.6697 25.3295 35.4791 26.6604 34.5522 28.1316H12.3735C10.9065 28.1656 10.9065 30.3469 12.3735 30.3809H33.3914C32.7999 31.8151 32.4369 33.3331 32.3156 34.8796H12.3182C10.796 34.9774 10.9023 37.1715 12.3735 37.129H32.3156C32.4304 38.6597 32.7833 40.1734 33.3829 41.6276H12.3225C10.762 41.6999 10.8768 43.9535 12.3735 43.8812H34.5394C34.752 44.2214 34.9646 44.553 35.2113 44.8762C37.0818 47.3575 39.6873 49.1856 42.6571 50.1002C45.6268 51.0148 48.8094 50.9693 51.7518 49.9702V52.8403C51.7305 54.3625 54.0224 54.3625 54.0011 52.8403V48.9794C54.318 48.8109 54.6286 48.6308 54.9323 48.4394L57.5898 51.9729L56.6501 52.6787C56.5311 52.7675 56.4309 52.879 56.3551 53.0067C56.2794 53.1343 56.2296 53.2758 56.2086 53.4227C56.1877 53.5697 56.196 53.7194 56.2331 53.8632C56.2702 54.0069 56.3353 54.142 56.4248 54.2605L64.3463 64.8056C64.7248 65.2988 65.4306 65.4008 65.9281 65.0224L69.5636 62.2883C69.8008 62.1085 69.9572 61.8421 69.9986 61.5473C70.04 61.2525 69.9631 60.9534 69.7847 60.7151L61.8674 50.1743C61.6882 49.9364 61.4221 49.7792 61.1273 49.737C60.8325 49.6947 60.5329 49.7709 60.2941 49.9489L59.3927 50.625L56.7352 47.0915ZM16.8764 21.3708C15.3457 21.3368 15.3457 23.6542 16.8764 23.6244H33.7528C35.2836 23.6542 35.2836 21.3368 33.7528 21.3708H16.8764ZM13.5045 49.4982C13.3566 49.4976 13.2099 49.5262 13.073 49.5823C12.9361 49.6384 12.8116 49.721 12.7065 49.8252C12.6015 49.9294 12.518 50.0533 12.4609 50.1898C12.4038 50.3263 12.3741 50.4727 12.3735 50.6207V59.6223C12.3735 60.2474 12.8795 60.7576 13.5045 60.7534H30.3809C31.0017 60.7534 31.5035 60.2431 31.4992 59.6223V50.6207C31.4981 50.3241 31.3801 50.0398 31.1707 49.8297C30.9614 49.6195 30.6776 49.5004 30.3809 49.4982H13.5045ZM14.6271 51.7518H29.2541V58.4998H14.6271V51.7518ZM60.7363 52.4236L67.3143 61.1701L65.4774 62.552L58.8995 53.8055L60.7363 52.4236Z" fill="#93A6E6"/>
</g>
<defs>
<clipPath id="clip0_1029_1289">
<rect width="72" height="72" fill="white"/>
</clipPath>
</defs>
</svg>
