<svg width="72" height="72" viewBox="0 0 72 72" fill="none" xmlns="http://www.w3.org/2000/svg">
<g clip-path="url(#clip0_1029_302)">
<path d="M33.4035 19.864L40.717 14.6255L41.4696 15.68C42.3455 16.9003 44.1739 15.5907 43.298 14.3704L42.5496 13.3158C42.7923 13.1424 42.9563 12.8799 43.0057 12.5858C43.0551 12.2917 42.9859 11.99 42.8133 11.7468L40.194 8.09008C40.1075 7.97 39.9981 7.86815 39.8722 7.79034C39.7463 7.71253 39.6063 7.66029 39.4602 7.6366C39.3141 7.61291 39.1648 7.61823 39.0208 7.65227C38.8767 7.6863 38.7408 7.74838 38.6207 7.83495L27.6547 15.6885C27.4114 15.8613 27.2466 16.1235 27.1963 16.4176C27.1461 16.7118 27.2146 17.0138 27.3868 17.2575L30.0061 20.9143C30.3675 21.4245 31.0691 21.5351 31.5793 21.1694L33.5438 23.9205L30.797 25.8849C30.5562 26.0589 30.3939 26.3209 30.3453 26.6139C30.2968 26.907 30.3659 27.2073 30.5376 27.4497L8.57574 43.1653C8.48921 43.0452 8.37987 42.9433 8.25397 42.8655C8.12806 42.7877 7.98806 42.7355 7.84197 42.7118C7.69587 42.6881 7.54653 42.6934 7.40249 42.7274C7.25845 42.7615 7.12253 42.8236 7.00248 42.9101L3.34572 45.5294C3.1043 45.7027 2.94114 45.9644 2.89176 46.2575C2.84239 46.5506 2.9108 46.8513 3.08209 47.0942L8.32487 54.4162C8.6863 54.9264 9.38789 55.0412 9.89388 54.6841L13.5506 52.0648C13.6714 51.9789 13.774 51.8701 13.8526 51.7445C13.9312 51.6189 13.9843 51.479 14.0088 51.3329C14.0333 51.1867 14.0287 51.0372 13.9953 50.8928C13.9619 50.7485 13.9004 50.6121 13.8143 50.4915L29.9168 38.9685C31.1371 38.0926 29.8275 36.2599 28.6072 37.1358L12.5046 48.6589L9.88538 44.9979L31.843 29.2866L34.4622 32.9433L32.2979 34.4911C31.0776 35.3627 32.3872 37.1954 33.6076 36.3195L35.7719 34.776C36.129 35.2819 36.8349 35.401 37.3409 35.0396L40.0877 33.0751L42.0522 35.8177C41.8088 35.9905 41.644 36.2527 41.5938 36.5468C41.5436 36.841 41.6121 37.143 41.7843 37.3867L44.4035 41.0435C44.765 41.5537 45.4751 41.6728 45.9768 41.3071L56.9556 33.4536C57.076 33.3674 57.1782 33.2583 57.2564 33.1325C57.3346 33.0068 57.3873 32.8668 57.4114 32.7207C57.4355 32.5746 57.4305 32.4252 57.3968 32.281C57.3631 32.1368 57.3013 32.0006 57.215 31.8803L54.5957 28.2193C54.5092 28.0992 54.3998 27.9974 54.2739 27.9196C54.148 27.8417 54.008 27.7895 53.8619 27.7658C53.7158 27.7421 53.5665 27.7474 53.4225 27.7815C53.2784 27.8155 53.1425 27.8776 53.0224 27.9642L46.0236 18.1717C45.1476 16.9514 43.3193 18.261 44.1952 19.4813L51.1941 29.2695L43.8805 34.4996L33.4035 19.864ZM39.0204 10.3182L40.3301 12.1465L31.1797 18.6947L29.87 16.8663L39.0204 10.3182ZM39.9601 20.2254C39.7556 20.2325 39.5568 20.2951 39.3851 20.4066C39.2134 20.5181 39.0754 20.6742 38.9858 20.8583C38.8962 21.0423 38.8584 21.2473 38.8765 21.4512C38.8946 21.6551 38.9678 21.8502 39.0885 22.0155L43.6764 28.4191C44.5439 29.6437 46.3807 28.3384 45.5091 27.1138L40.9254 20.7144C40.8184 20.5585 40.674 20.4319 40.5053 20.3465C40.3366 20.261 40.1491 20.2194 39.9601 20.2254ZM34.8492 25.7531L38.7781 31.2382L36.9497 32.5479L33.0208 27.0627L34.8492 25.7531ZM53.4264 30.4431L54.736 32.2715L45.5814 38.8197L44.2717 36.9913L53.4264 30.4431ZM7.40218 45.3891L11.3311 50.8827L9.50269 52.1924L5.56954 46.6987L7.40218 45.3891ZM64.3924 52.9705V56.3381H28.3946C28.2466 56.3387 28.1002 56.3684 27.9637 56.4255C27.8272 56.4827 27.7033 56.5661 27.599 56.6711C27.4948 56.7762 27.4123 56.9007 27.3562 57.0376C27.3 57.1746 27.2715 57.3212 27.272 57.4692V64.2129C27.272 64.8337 27.7695 65.3397 28.3946 65.344H68.8954C69.044 65.3445 69.1914 65.3157 69.3288 65.259C69.4663 65.2024 69.5912 65.1191 69.6964 65.0139C69.8015 64.9088 69.8848 64.7839 69.9415 64.6464C69.9981 64.5089 70.027 64.3616 70.0264 64.2129V57.4692C70.027 57.3205 69.9981 57.1731 69.9415 57.0357C69.8848 56.8982 69.8015 56.7733 69.6964 56.6681C69.5912 56.563 69.4663 56.4797 69.3288 56.4231C69.1914 56.3664 69.044 56.3376 68.8954 56.3381H66.6418V51.8394C66.6407 51.5428 66.5226 51.2586 66.3133 51.0484C66.1039 50.8383 65.8201 50.7191 65.5235 50.7169H31.7154C30.1847 50.7339 30.2612 52.979 31.7707 52.9705H64.3924ZM29.5256 58.5917H67.7771V63.0904H29.5214L29.5256 58.5917Z" fill="#93A6E6"/>
</g>
<defs>
<clipPath id="clip0_1029_302">
<rect width="72" height="72" fill="white"/>
</clipPath>
</defs>
</svg>
