<svg width="72" height="72" viewBox="0 0 72 72" fill="none" xmlns="http://www.w3.org/2000/svg">
<g clip-path="url(#clip0_1029_2155)">
<path d="M19.1045 2.23242C16.6255 2.23242 14.6186 4.28191 14.6228 6.7481L14.6483 22.4935C14.6186 24.0284 16.9359 24.0199 16.8977 22.4849L16.8721 6.75235C16.8721 5.47674 17.8501 4.48176 19.1045 4.48176L65.2477 4.49877C66.1109 4.49877 66.6169 4.76239 66.9656 5.14508C67.3185 5.52776 67.5226 6.09329 67.5226 6.76086L67.4971 31.4865C67.501 31.7844 67.4456 32.08 67.3339 32.3562C67.2223 32.6323 67.0567 32.8835 66.8469 33.0949C66.6371 33.3063 66.3872 33.4738 66.1119 33.5875C65.8366 33.7012 65.5413 33.7589 65.2435 33.7571L48.3798 33.7486C48.2005 33.748 48.0236 33.7901 47.8638 33.8716C47.704 33.953 47.566 34.0715 47.4612 34.217C47.3564 34.3626 47.2878 34.5311 47.2612 34.7084C47.2347 34.8858 47.2508 35.067 47.3083 35.2369L48.5202 38.8724L41.1216 33.94C40.9367 33.8158 40.7192 33.7492 40.4965 33.7486H19.1342C18.8406 33.7575 18.5482 33.7061 18.2751 33.5976C18.002 33.4892 17.7541 33.3259 17.5465 33.118C17.339 32.91 17.1762 32.6618 17.0683 32.3885C16.9603 32.1152 16.9095 31.8227 16.9189 31.5291L16.9062 26.8646C16.9359 25.3296 14.6186 25.3381 14.6568 26.8731L14.6611 29.2457H6.75226C5.36609 29.2457 4.16701 29.7687 3.38038 30.6276C2.61795 31.4928 2.20822 32.6127 2.23233 33.7656L2.25359 58.4913C2.25784 60.966 4.28182 63.0113 6.76077 63.0113L19.8146 63.0028L18.0627 68.2668C17.7226 69.2873 18.8621 70.1547 19.755 69.5594L29.5943 62.9985H52.8743C55.3362 62.9985 57.3389 61 57.3432 58.5338L57.3687 41.5852C57.3942 40.0629 55.0981 40.0629 55.1194 41.5852L55.0938 58.5338C55.0938 59.8095 54.1584 60.7492 52.8743 60.7492H29.2541C29.0314 60.7498 28.8139 60.8164 28.6291 60.9405L21.2348 65.8729L22.4466 62.2289C22.5022 62.0602 22.5172 61.8807 22.4903 61.7051C22.4633 61.5295 22.3953 61.3628 22.2916 61.2185C22.188 61.0742 22.0517 60.9565 21.8939 60.875C21.7361 60.7934 21.5612 60.7503 21.3836 60.7492L6.76502 60.7619C6.46692 60.7631 6.17156 60.705 5.89604 60.5912C5.62053 60.4774 5.37033 60.3101 5.15993 60.0989C4.94954 59.8877 4.78314 59.6369 4.67036 59.3609C4.55758 59.085 4.50067 58.7894 4.50293 58.4913L4.47741 33.7614C4.47741 33.0896 4.68576 32.5283 5.03443 32.1456C5.38735 31.7629 5.88484 31.495 6.75226 31.495L14.6611 31.5121C14.6653 33.9953 16.6723 35.9937 19.13 35.9937H40.1564L49.9999 42.5546C50.8928 43.1499 52.0281 42.2825 51.6922 41.2663L49.9318 35.9937L65.2392 36.0022C67.7182 36.0022 69.7464 33.9612 69.7464 31.4865L69.7719 6.76086C69.7719 5.6128 69.4147 4.48176 68.6281 3.62284C68.1916 3.1714 67.6662 2.81548 67.0851 2.57761C66.5039 2.33974 65.8797 2.22509 65.252 2.24093L19.1045 2.23242ZM41.7679 9.2228C42.8522 8.71255 42.4908 7.08827 41.3002 7.07976C41.1203 7.07778 40.9425 7.11859 40.7814 7.19882C40.1976 7.48551 39.6825 7.89494 39.2716 8.39912C38.8606 8.90329 38.5634 9.4903 38.4003 10.12H31.495C31.0697 10.12 30.6743 10.3666 30.4872 10.7493C30.4872 10.7493 25.0446 19.4022 24.917 19.6531C24.7937 19.9082 24.7299 20.2654 24.8745 20.8352C25.0233 21.4049 25.2104 22.0045 25.6994 23.0037C26.0098 23.633 26.3967 24.2793 26.9368 24.8363C27.4768 25.3891 28.2464 25.8738 29.1818 25.8738L33.6805 25.8653C34.6245 25.8653 35.4153 25.3976 35.9809 24.8448C36.5464 24.2921 36.9588 23.6415 37.2777 23.0079C37.788 22.0002 37.9708 21.2901 38.1239 20.8352C38.277 20.3802 38.3152 20.0145 38.0814 19.6573L33.5317 12.3736H38.4088C38.8212 13.9468 40.0543 15.1799 41.6276 15.5924V28.1274H34.8243C33.3021 28.238 33.4126 30.415 34.8796 30.3768H50.6249C52.1557 30.4108 52.1557 28.0934 50.6249 28.1232H43.8812V15.5924C45.4459 15.1799 46.679 13.9468 47.0915 12.3778H51.9728C51.9728 12.3778 47.657 19.2151 47.4274 19.6488C47.202 20.0868 47.3168 20.5503 47.4274 21.0095C47.5337 21.4645 47.7761 22.1448 48.197 23.0079C48.5074 23.6373 48.8943 24.2836 49.4344 24.8406C49.9786 25.3934 50.744 25.8781 51.6752 25.8781L56.1866 25.8696C57.1306 25.8696 57.9215 25.4019 58.487 24.8491C59.0525 24.2963 59.4564 23.6458 59.7753 23.0122C60.2983 21.9832 60.5407 21.1498 60.6385 20.8096C60.7321 20.4695 60.7831 20.0443 60.596 19.6871C60.511 19.5298 54.9578 10.6557 54.9578 10.6557C54.8538 10.4909 54.7093 10.3555 54.5381 10.2625C54.3669 10.1694 54.1747 10.1218 53.9798 10.1242H47.0957C46.98 9.6638 46.792 9.22464 46.5387 8.8231C45.7223 7.56024 43.8302 8.78058 44.6423 10.0434C44.8767 10.4041 45.0008 10.8252 44.9995 11.2553C45.0035 11.5514 44.948 11.8453 44.8363 12.1195C44.7246 12.3938 44.5589 12.6428 44.3491 12.8518C44.1393 13.0608 43.8897 13.2255 43.615 13.3362C43.3403 13.4469 43.0462 13.5013 42.7501 13.4961C41.4405 13.4961 40.4285 12.4714 40.4965 11.2553C40.4965 10.3538 41.0238 9.59272 41.7722 9.22705L41.7679 9.2228ZM31.5035 13.3685L35.0964 19.1216H27.9062L31.5035 13.3685ZM54.0053 13.3771L57.594 19.1216H50.4081L54.0053 13.3771ZM27.4853 21.3709H35.5046C35.1305 22.1533 34.8796 23.6245 33.6848 23.6245H29.1818C28.1486 23.6245 27.8637 22.2298 27.4853 21.3709ZM49.9914 21.3709H58.0065C57.5898 22.2128 57.3772 23.6245 56.1781 23.6245H51.6752C50.6249 23.6245 50.3443 22.2128 49.9914 21.3709ZM15.1756 43.8685C13.6746 43.8685 13.6746 46.1221 15.1756 46.1221H44.4297C45.9307 46.1221 45.9307 43.8685 44.4297 43.8685H15.1756ZM15.1756 48.3757C13.7086 48.4055 13.7086 50.5868 15.1756 50.6208H44.4297C45.8924 50.5868 45.8924 48.4055 44.4297 48.3714L15.1756 48.3757ZM15.1756 52.8701C13.6746 52.8701 13.6746 55.1237 15.1756 55.1237H44.4297C45.9307 55.1237 45.9307 52.8701 44.4297 52.8701H15.1756Z" fill="#93A6E6"/>
</g>
<defs>
<clipPath id="clip0_1029_2155">
<rect width="72" height="72" fill="white"/>
</clipPath>
</defs>
</svg>
