<svg width="72" height="72" viewBox="0 0 72 72" fill="none" xmlns="http://www.w3.org/2000/svg">
<g clip-path="url(#clip0_1029_74)">
<path d="M2.14305 16.9104C2.11328 18.4454 4.43065 18.4412 4.39238 16.9019V15.7454H22.0341L32.8131 26.6604C33.0257 26.873 33.3106 27.0006 33.6082 27.0006H67.5013V67.4929H4.50293L4.40089 21.4006C4.36262 19.9379 2.17706 19.9464 2.1473 21.4134L2.2536 68.6239C2.2536 69.2447 2.75534 69.7422 3.37614 69.7464H68.6281C68.9262 69.7465 69.2122 69.6283 69.4234 69.4179C69.6346 69.2075 69.7538 68.922 69.7549 68.6239V3.37191C69.7549 3.0738 69.6368 2.78784 69.4264 2.57665C69.216 2.36545 68.9305 2.24624 68.6324 2.24512H3.37614C3.07949 2.2451 2.79481 2.36206 2.58385 2.57062C2.3729 2.77919 2.25271 3.06253 2.24935 3.35915C2.21533 7.87483 2.13879 12.3948 2.14305 16.9104ZM4.49018 4.4987H67.5013V24.7512H34.0802L29.6368 20.2483H63.0027V21.3751C62.9814 22.8973 65.2733 22.8973 65.252 21.3751V19.1215C65.2509 18.8234 65.1317 18.5379 64.9205 18.3275C64.7093 18.1171 64.4233 17.999 64.1252 17.999H61.8759V14.6228C61.8748 14.3247 61.7555 14.0392 61.5443 13.8288C61.3332 13.6184 61.0472 13.5003 60.7491 13.5003H58.4955V10.1284C58.4966 9.83031 58.3796 9.5439 58.17 9.33191C57.9604 9.11991 57.6753 8.99962 57.3772 8.99738H17.9947C17.6966 8.99962 17.4115 9.11991 17.2019 9.33191C16.9923 9.5439 16.8753 9.83031 16.8764 10.1284V13.5003H4.40089L4.49018 4.4987ZM19.1257 11.2467H56.2462V13.5003H19.1257V11.2467ZM25.1977 15.7496H59.6265V17.999H27.4172L25.1977 15.7496ZM8.73798 47.5465C8.44381 47.5964 8.18147 47.761 8.00849 48.0041C7.83552 48.2473 7.76603 48.5491 7.81528 48.8434L8.93782 55.5063C9.03987 56.1144 9.61815 56.5268 10.2304 56.4248L14.6653 55.6764C14.9578 55.6264 15.2187 55.463 15.3914 55.2218C15.5642 54.9806 15.6348 54.681 15.588 54.388L30.011 51.9686C30.113 52.5852 30.6913 52.9976 31.3079 52.8956L34.6415 52.3343L34.8243 53.4398C34.6771 53.463 34.5359 53.5152 34.409 53.5934C34.2821 53.6715 34.172 53.7741 34.085 53.8951C33.998 54.0161 33.9358 54.1532 33.9022 54.2984C33.8685 54.4436 33.864 54.594 33.8889 54.741L34.6372 59.1758C34.7393 59.7924 35.3176 60.2091 35.9341 60.107L47.032 58.2446C47.3253 58.1937 47.5866 58.0287 47.7587 57.7857C47.9308 57.5427 47.9997 57.2414 47.9504 56.9478L47.2148 52.5044C47.1921 52.3572 47.1404 52.216 47.0627 52.0889C46.985 51.9618 46.883 51.8514 46.7624 51.764C46.6418 51.6766 46.5051 51.614 46.3601 51.5798C46.2152 51.5456 46.0649 51.5404 45.9179 51.5647L44.7274 44.4637C44.5275 42.933 42.2101 43.3114 42.512 44.8337L43.7069 51.9474L37.0481 53.0742L34.8073 39.761L41.466 38.6384L41.7382 40.2925C41.989 41.7764 44.2171 41.398 43.9662 39.9183L43.6941 38.3153C43.8429 38.2894 43.985 38.2338 44.1119 38.1519C44.2388 38.0699 44.348 37.9633 44.4329 37.8384C44.5178 37.7134 44.5767 37.5727 44.6061 37.4245C44.6355 37.2763 44.6348 37.1238 44.604 36.9759L43.8642 32.5325C43.7749 31.9967 43.3114 31.597 42.6651 31.6013L31.4737 33.4722C31.1796 33.5212 30.9169 33.6847 30.7432 33.927C30.5695 34.1693 30.4988 34.4706 30.5468 34.7648L31.2909 39.2082C31.3759 39.846 31.9712 40.284 32.6005 40.1734L33.1533 43.4603L29.8154 44.0173C29.5221 44.0673 29.2605 44.2312 29.0876 44.4734C28.9148 44.7156 28.8447 45.0163 28.8927 45.3099L14.4655 47.7293C14.4163 47.4423 14.2587 47.1851 14.0252 47.011C13.7917 46.8369 13.5003 46.7591 13.2111 46.7939L8.73798 47.5465ZM32.9534 35.5089L41.8317 34.0165L42.2016 36.2275L33.3276 37.72L32.9534 35.5089ZM38.6257 40.8282C38.4588 40.8255 38.2935 40.8598 38.1415 40.9287C37.9896 40.9976 37.8548 41.0994 37.747 41.2268C37.6392 41.3541 37.561 41.5038 37.5181 41.6651C37.4752 41.8263 37.4686 41.995 37.4989 42.1591L38.8 49.9234C38.9956 51.4754 41.3427 51.0799 41.0153 49.5492L39.7142 41.785C39.6742 41.5229 39.5432 41.2834 39.3441 41.1084C39.145 40.9334 38.8906 40.8342 38.6257 40.8282ZM33.5232 45.6756L34.2673 50.119L32.0775 50.4804C31.8054 49.1367 31.4992 47.2488 31.3036 46.0455L33.5232 45.6756ZM29.2669 47.5337L29.6411 49.749L15.2139 52.1642L14.8397 49.9446L29.2669 47.5337ZM12.399 49.2175C12.6796 50.7355 12.9603 52.2918 13.1771 53.6439L10.9661 54.0181L10.2134 49.5832L12.399 49.2175ZM52.8785 51.7518H62.9984C64.4994 51.7518 64.4994 49.4982 62.9984 49.4982H52.819C51.2585 49.579 51.3776 51.8283 52.8785 51.7518ZM45.1738 53.9883L45.5522 56.2122L36.674 57.7004L36.304 55.4808L45.1738 53.9883ZM52.8743 56.2504H62.9984C64.5292 56.2845 64.5292 53.9671 62.9984 54.0011H52.819C51.2925 54.1117 51.4073 56.293 52.8743 56.2504ZM52.8743 60.7576H62.9984C64.4994 60.7576 64.4994 58.504 62.9984 58.504H52.819C51.2585 58.5806 51.3733 60.8299 52.8743 60.7576Z" fill="#93A6E6"/>
</g>
<defs>
<clipPath id="clip0_1029_74">
<rect width="72" height="72" fill="white"/>
</clipPath>
</defs>
</svg>
