<svg width="100" height="100" viewBox="0 0 100 100" fill="none" xmlns="http://www.w3.org/2000/svg">
<g clip-path="url(#clip0_505_3848)">
<path d="M51.0271 77.1084L52.1632 73.6601" stroke="#93A6E6" stroke-width="2" stroke-miterlimit="10" stroke-linecap="round" stroke-linejoin="round"/>
<path d="M37.5095 50.3071L40.9537 51.4434" stroke="#93A6E6" stroke-width="2" stroke-miterlimit="10" stroke-linecap="round" stroke-linejoin="round"/>
<path d="M48.1052 37.9973L49.7436 41.2383" stroke="#93A6E6" stroke-width="2" stroke-miterlimit="10" stroke-linecap="round" stroke-linejoin="round"/>
<path d="M67.2276 75.8965L65.5933 72.6555" stroke="#93A6E6" stroke-width="2" stroke-miterlimit="10" stroke-linecap="round" stroke-linejoin="round"/>
<path d="M38.7175 66.5088L41.9585 64.8743" stroke="#93A6E6" stroke-width="2" stroke-miterlimit="10" stroke-linecap="round" stroke-linejoin="round"/>
<path d="M53.9213 29.9489C57.9197 29.3949 62.0974 29.7217 66.1873 31.0692C80.5022 35.785 88.2835 51.2086 83.5675 65.5198C78.8557 79.831 63.4327 87.6125 49.1179 82.9006C34.8069 78.1885 27.0257 62.7612 31.7414 48.4498C34.5559 39.8991 41.197 33.6801 49.1377 31.0612" stroke="#93A6E6" stroke-width="2" stroke-miterlimit="10" stroke-linecap="round" stroke-linejoin="round"/>
<path d="M61.0049 29.9013L63.1815 23.3038M73.223 26.6124L71.0505 33.21" stroke="#93A6E6" stroke-width="2" stroke-miterlimit="10" stroke-linecap="round" stroke-linejoin="round"/>
<path d="M68.2639 17.5318L63.014 15.8015C62.2009 15.5346 61.3158 15.9811 61.0488 16.7942L59.809 20.5574C59.542 21.3707 59.9844 22.2556 60.7976 22.5227L75.6028 27.3981C76.4161 27.6653 77.301 27.2188 77.5681 26.4056L78.8078 22.6423C79.0749 21.8291 78.6284 20.9441 77.8151 20.677L72.7645 19.0146" stroke="#93A6E6" stroke-width="2" stroke-miterlimit="10" stroke-linecap="round" stroke-linejoin="round"/>
<path d="M28.1698 33.4092H15.0547M43.9196 33.4092H35.1976" stroke="#93A6E6" stroke-width="2" stroke-miterlimit="10" stroke-linecap="round" stroke-linejoin="round"/>
<path d="M29.1862 40.792H19.2722" stroke="#93A6E6" stroke-width="2" stroke-miterlimit="10" stroke-linecap="round" stroke-linejoin="round"/>
<path d="M22.4732 55.5537H15.0547" stroke="#93A6E6" stroke-width="2" stroke-miterlimit="10" stroke-linecap="round" stroke-linejoin="round"/>
<path d="M30.6253 62.9365H18.4631" stroke="#93A6E6" stroke-width="2" stroke-miterlimit="10" stroke-linecap="round" stroke-linejoin="round"/>
<path d="M26.6908 70.3193H21.5247" stroke="#93A6E6" stroke-width="2" stroke-miterlimit="10" stroke-linecap="round" stroke-linejoin="round"/>
<path d="M39.1119 77.7021H27.7471" stroke="#93A6E6" stroke-width="2" stroke-miterlimit="10" stroke-linecap="round" stroke-linejoin="round"/>
<path d="M77.8631 63.5986L61.001 58.0455" stroke="#93A6E6" stroke-width="2" stroke-miterlimit="10" stroke-linecap="round" stroke-linejoin="round"/>
<path d="M64.3055 36.7895L58.7646 53.6123" stroke="#93A6E6" stroke-width="2" stroke-miterlimit="10" stroke-linecap="round" stroke-linejoin="round"/>
<path d="M47.1326 47.6964L54.7903 54.6768" stroke="#93A6E6" stroke-width="2" stroke-miterlimit="10" stroke-linecap="round" stroke-linejoin="round"/>
<path d="M58.1028 60.4693L58.5652 64.4277" stroke="#93A6E6" stroke-width="2" stroke-miterlimit="10" stroke-linecap="round" stroke-linejoin="round"/>
<path d="M31.9128 48.1748H23.717" stroke="#93A6E6" stroke-width="2" stroke-miterlimit="10" stroke-linecap="round" stroke-linejoin="round"/>
<path d="M58.7645 53.6128C60.6062 54.2187 61.6066 56.2039 61.0007 58.0456C60.3949 59.8875 58.4097 60.888 56.5681 60.2821C54.7263 59.6761 53.7258 57.6909 54.3317 55.8491C54.9375 54.0075 56.9227 53.0068 58.7645 53.6128Z" stroke="#93A6E6" stroke-width="2" stroke-miterlimit="10" stroke-linecap="round" stroke-linejoin="round"/>
<path d="M64.3057 36.7896C53.1521 33.1141 41.1333 39.1815 37.458 50.3355C33.7865 61.4896 39.8497 73.5085 51.0033 77.18C62.1571 80.8554 74.1759 74.7921 77.8512 63.6382L77.8632 63.5984C81.5107 52.4563 75.4474 40.4572 64.3057 36.7896Z" stroke="#93A6E6" stroke-width="2" stroke-miterlimit="10" stroke-linecap="round" stroke-linejoin="round"/>
</g>
<defs>
<clipPath id="clip0_505_3848">
<rect width="72" height="72" fill="white" transform="translate(14 14)"/>
</clipPath>
</defs>
</svg>
