<svg width="100" height="100" viewBox="0 0 100 100" fill="none" xmlns="http://www.w3.org/2000/svg">
<g clip-path="url(#clip0_505_3829)">
<path d="M84.088 80.8924H81.9498V68.3524H84.088C84.3677 68.3524 84.636 68.2413 84.8338 68.0435C85.0316 67.8457 85.1427 67.5774 85.1427 67.2977C85.1427 67.018 85.0316 66.7497 84.8338 66.5519C84.636 66.3541 84.3677 66.243 84.088 66.243H62.9836V63.4433C62.9836 61.5328 61.4292 59.9783 59.5186 59.9783H57.6281V57.8026C57.6281 55.7074 55.953 53.9973 53.8719 53.9382V36.9219C53.8719 36.6422 53.7608 36.3739 53.563 36.1761C53.3652 35.9783 53.0969 35.8672 52.8172 35.8672C52.5375 35.8672 52.2692 35.9783 52.0714 36.1761C51.8736 36.3739 51.7625 36.6422 51.7625 36.9219V53.9352H48.2376V29.5564H51.7625V32C51.7625 32.2797 51.8736 32.548 52.0714 32.7458C52.2692 32.9436 52.5375 33.0547 52.8172 33.0547C53.0969 33.0547 53.3652 32.9436 53.563 32.7458C53.7608 32.548 53.8719 32.2797 53.8719 32V29.2048C53.8719 28.2355 53.0834 27.447 52.1141 27.447H51.0546V23.8699C52.9618 23.458 54.4663 21.9535 54.8782 20.0463H67.8045V21.9699L57.4919 41.5645C57.0268 41.6144 56.6059 41.8823 56.3691 42.2922C56.2399 42.5168 56.1719 42.7714 56.1719 43.0305C56.1719 43.2896 56.2399 43.5442 56.3691 43.7688L58.9022 48.156C59.0321 48.3802 59.2186 48.5664 59.443 48.696C59.6674 48.8256 59.9219 48.894 60.181 48.8944H70.1093C70.389 48.8944 70.6573 48.7833 70.8551 48.5855C71.0529 48.3877 71.164 48.1194 71.164 47.8397C71.164 47.56 71.0529 47.2917 70.8551 47.0939C70.6573 46.8961 70.389 46.785 70.1093 46.785H60.5465L58.7441 43.6632H78.9746L77.1722 46.785H75.0312C74.7515 46.785 74.4832 46.8961 74.2854 47.0939C74.0876 47.2917 73.9765 47.56 73.9765 47.8397C73.9765 48.1194 74.0876 48.3877 74.2854 48.5855C74.4832 48.7833 74.7515 48.8944 75.0312 48.8944H77.5374C78.0632 48.8944 78.5531 48.6116 78.8161 48.1561L81.3493 43.7685C81.4785 43.5439 81.5464 43.2893 81.5464 43.0302C81.5464 42.7711 81.4784 42.5165 81.3492 42.2919C81.1125 41.882 80.6915 41.614 80.2264 41.5642L69.914 21.9699V20.0462H73.8619C74.1416 20.0462 74.4099 19.9351 74.6077 19.7373C74.8055 19.5395 74.9166 19.2712 74.9166 18.9915C74.9166 18.7118 74.8055 18.4435 74.6077 18.2457C74.4099 18.0479 74.1416 17.9368 73.8619 17.9368H54.8783C54.3928 15.6895 52.3904 14 49.9999 14C47.6094 14 45.6071 15.6895 45.1216 17.9368H26.138C25.8583 17.9368 25.59 18.0479 25.3922 18.2457C25.1944 18.4435 25.0833 18.7118 25.0833 18.9915C25.0833 19.2712 25.1944 19.5395 25.3922 19.7373C25.59 19.9351 25.8583 20.0462 26.138 20.0462H30.0859V21.9698L19.7734 41.5645C19.3084 41.6144 18.8875 41.8823 18.6507 42.2922C18.5215 42.5168 18.4535 42.7714 18.4534 43.0305C18.4534 43.2896 18.5214 43.5441 18.6505 43.7688V43.7689L21.1838 48.1565C21.3137 48.3807 21.5002 48.5668 21.7245 48.6964C21.9489 48.8259 22.2034 48.8943 22.4625 48.8947H39.8188C40.3446 48.8947 40.8346 48.6119 41.0975 48.1564L43.6306 43.7689C43.7598 43.5443 43.8278 43.2897 43.8278 43.0306C43.8278 42.7715 43.7598 42.5169 43.6306 42.2923C43.3941 41.8824 42.973 41.6144 42.5079 41.5645L32.1953 21.9699V20.0462H45.1215C45.5335 21.9533 47.0379 23.4579 48.9451 23.8698V27.4468H47.8858C46.9164 27.4468 46.128 28.2353 46.128 29.2047V53.9381C44.0469 53.9971 42.3717 55.7073 42.3717 57.8024V59.9782H40.4813C38.5708 59.9782 37.0163 61.5327 37.0163 63.4432V66.2429H23.2366C18.6162 66.2429 14.8572 70.0018 14.8572 74.6223C14.8572 79.2427 18.6161 83.0016 23.2366 83.0016H29.1509V84.5225C29.1509 85.0734 29.4541 85.5746 29.942 85.8304C30.1805 85.9559 30.4489 86.0136 30.718 85.997C30.987 85.9805 31.2463 85.8904 31.4677 85.7366L34.0459 83.9524L36.624 85.7366C36.8706 85.9078 37.1636 85.9995 37.4638 85.9997C37.6982 85.9997 37.9333 85.9436 38.1496 85.8303C38.3885 85.7055 38.5887 85.5176 38.7282 85.287C38.8677 85.0564 38.9412 84.7919 38.9408 84.5223V83.0014H84.088C84.3647 82.9969 84.6285 82.8838 84.8226 82.6866C85.0167 82.4893 85.1255 82.2236 85.1255 81.9469C85.1255 81.6702 85.0167 81.4045 84.8226 81.2072C84.6285 81.01 84.3647 80.8969 84.088 80.8924ZM67.8046 41.5539H59.8812L67.8046 26.4989V41.5539ZM69.914 26.4989L77.8373 41.5539H69.914V26.4989ZM30.0859 26.4989V41.5539H22.1625L30.0859 26.4989ZM39.4533 46.7852H22.8278L21.0254 43.6633H41.2559L39.4533 46.7852ZM40.1188 41.5539H32.1954V26.4989L40.1188 41.5539ZM47.1178 18.9915C47.1178 17.4023 48.4107 16.1094 49.9999 16.1094C51.5891 16.1094 52.882 17.4023 52.882 18.9915C52.882 20.5807 51.5891 21.8736 49.9999 21.8736C48.4107 21.8736 47.1178 20.5807 47.1178 18.9915ZM44.4811 57.8024C44.4811 56.8331 45.2696 56.0446 46.2389 56.0446H53.7608C54.7301 56.0446 55.5186 56.8331 55.5186 57.8024V59.9782H44.4811V57.8024ZM23.2366 80.8924C19.7793 80.8924 16.9666 78.0797 16.9666 74.6223C16.9666 71.165 19.7792 68.3524 23.2366 68.3524H24.7047C24.1614 69.1485 23.8713 70.0901 23.8724 71.054V78.1908C23.8713 79.1546 24.1615 80.0963 24.7049 80.8924H23.2366ZM36.8312 83.3152L34.6459 81.8029C34.4696 81.6808 34.2602 81.6154 34.0457 81.6154C33.8313 81.6154 33.6219 81.6808 33.4456 81.8029L31.2601 83.3152V73.0476H36.8312V83.3152ZM79.8404 70.9384H57.043C56.7633 70.9384 56.495 71.0495 56.2972 71.2473C56.0994 71.4451 55.9883 71.7133 55.9883 71.993C55.9883 72.2728 56.0994 72.541 56.2972 72.7388C56.495 72.9366 56.7633 73.0477 57.043 73.0477H79.8406V76.1972H57.043C56.7633 76.1972 56.495 76.3083 56.2972 76.5061C56.0994 76.7039 55.9883 76.9721 55.9883 77.2519C55.9883 77.5316 56.0994 77.7998 56.2972 77.9976C56.495 78.1954 56.7633 78.3065 57.043 78.3065H79.8406V80.8925H38.9406V73.0477H47.8401C48.1198 73.0477 48.3881 72.9366 48.5858 72.7388C48.7836 72.541 48.8948 72.2728 48.8948 71.993C48.8948 71.7133 48.7836 71.4451 48.5858 71.2473C48.3881 71.0495 48.1198 70.9384 47.8401 70.9384H28.6831C28.4034 70.9384 28.1352 71.0495 27.9374 71.2473C27.7396 71.4451 27.6285 71.7133 27.6285 71.993C27.6285 72.2728 27.7396 72.541 27.9374 72.7388C28.1352 72.9366 28.4034 73.0477 28.6831 73.0477H29.1509V80.8925H28.6831C27.1935 80.8925 25.9816 79.6806 25.9816 78.1909V71.0541C25.9816 69.5645 27.1935 68.3525 28.6831 68.3525H45.6406C45.9203 68.3525 46.1885 68.2414 46.3863 68.0436C46.5841 67.8458 46.6952 67.5776 46.6952 67.2979C46.6952 67.0181 46.5841 66.7499 46.3863 66.5521C46.1885 66.3543 45.9203 66.2432 45.6406 66.2432H39.1257V63.4435C39.1257 62.696 39.7337 62.0878 40.4813 62.0878H59.5186C60.266 62.0878 60.8742 62.696 60.8742 63.4435V66.2432H50.5624C50.2827 66.2432 50.0144 66.3543 49.8167 66.5521C49.6189 66.7499 49.5077 67.0181 49.5077 67.2979C49.5077 67.5776 49.6189 67.8458 49.8167 68.0436C50.0144 68.2414 50.2827 68.3525 50.5624 68.3525H79.8404V70.9384Z" fill="#93A6E6"/>
</g>
<defs>
<clipPath id="clip0_505_3829">
<rect width="72" height="72" fill="white" transform="translate(14 14)"/>
</clipPath>
</defs>
</svg>
