<svg width="100" height="100" viewBox="0 0 100 100" fill="none" xmlns="http://www.w3.org/2000/svg">
<g clip-path="url(#clip0_505_3838)">
<path d="M78.5424 25.3299L50.4174 14.0799C50.1489 13.9734 49.8499 13.9734 49.5815 14.0799L21.4565 25.3299C21.2479 25.4137 21.0691 25.558 20.9432 25.7443C20.8172 25.9305 20.75 26.1502 20.75 26.375V46.3449C20.7292 55.1624 23.521 63.7567 28.7196 70.8788C33.9182 78.0008 41.2526 83.2793 49.6569 85.9472C49.8801 86.0183 50.1199 86.0183 50.3431 85.9472C58.7475 83.2793 66.0821 78.0006 71.2807 70.8783C76.4793 63.7561 79.271 55.1615 79.25 46.3438V26.375C79.2501 26.15 79.1827 25.9302 79.0566 25.7439C78.9304 25.5576 78.7513 25.4134 78.5424 25.3299ZM77 46.3449C77.0195 54.6236 74.4177 62.696 69.5674 69.4051C64.7172 76.1143 57.8675 81.1157 50 83.6927C42.1324 81.1157 35.2825 76.114 30.4322 69.4047C25.5819 62.6953 22.9802 54.6227 23 46.3438V27.1367L50 16.3367L77 27.1367V46.3449Z" fill="#93A6E6"/>
<path d="M49.5815 18.9277L25.9565 28.3777C25.748 28.4613 25.5692 28.6054 25.4433 28.7915C25.3174 28.9775 25.2501 29.197 25.25 29.4217V46.3451C25.2634 53.9456 27.6063 61.3593 31.9628 67.5874C36.3193 73.8154 42.4802 78.5584 49.6153 81.1773C49.8637 81.268 50.1363 81.268 50.3847 81.1773C57.5199 78.5582 63.6808 73.815 68.0373 67.5868C72.3939 61.3585 74.7366 53.9446 74.75 46.344V29.4217C74.7501 29.1967 74.6827 28.9769 74.5566 28.7906C74.4304 28.6043 74.2513 28.4601 74.0424 28.3766L50.4174 18.9266C50.1489 18.82 49.8499 18.8212 49.5815 18.9277ZM72.5 30.1822V46.344C72.4876 53.4131 70.3301 60.3119 66.3126 66.1284C62.2951 71.945 56.6069 76.4052 50 78.9195C43.3932 76.4051 37.7051 71.9448 33.6876 66.1283C29.6702 60.3118 27.5125 53.413 27.5 46.344V30.1833L50 21.1833L72.5 30.1822Z" fill="#93A6E6"/>
<path d="M42.9204 45.8298C42.7094 45.6189 42.4233 45.5004 42.125 45.5004C41.8267 45.5004 41.5406 45.6189 41.3296 45.8298L37.9546 49.2048C37.7437 49.4157 37.6252 49.7018 37.6252 50.0001C37.6252 50.2984 37.7437 50.5845 37.9546 50.7955L45.8296 58.6705C46.0406 58.8814 46.3267 58.9999 46.625 58.9999C46.9233 58.9999 47.2094 58.8814 47.4204 58.6705L62.0454 44.0455C62.2563 43.8345 62.3748 43.5484 62.3748 43.2501C62.3748 42.9518 62.2563 42.6657 62.0454 42.4548L58.6704 39.0798C58.4594 38.8689 58.1733 38.7504 57.875 38.7504C57.5767 38.7504 57.2906 38.8689 57.0796 39.0798L46.625 49.5344L42.9204 45.8298ZM57.875 41.4659L59.6592 43.2501L46.625 56.2844L40.3407 50.0001L42.125 48.2159L45.8296 51.9205C46.0406 52.1314 46.3267 52.2499 46.625 52.2499C46.9233 52.2499 47.2094 52.1314 47.4204 51.9205L57.875 41.4659ZM37.5451 29.8041C37.4338 29.5275 37.2174 29.3062 36.9433 29.1888C36.6692 29.0713 36.3597 29.0673 36.0826 29.1775L30.4576 31.4275C30.2488 31.5111 30.0698 31.6553 29.9436 31.8416C29.8175 32.0279 29.7501 32.2477 29.75 32.4726V38.4689C29.75 38.7673 29.8685 39.0534 30.0795 39.2644C30.2905 39.4754 30.5766 39.5939 30.875 39.5939C31.1734 39.5939 31.4595 39.4754 31.6705 39.2644C31.8815 39.0534 32 38.7673 32 38.4689V33.2343L36.9185 31.2678C37.0557 31.2129 37.1807 31.1315 37.2864 31.0283C37.3922 30.9251 37.4765 30.8021 37.5347 30.6663C37.5929 30.5305 37.6238 30.3846 37.6256 30.2368C37.6274 30.0891 37.6 29.9413 37.5451 29.8041ZM60.4085 66.5106C57.4186 69.8719 53.7115 72.5182 49.5613 74.254C49.4252 74.3116 49.3018 74.3955 49.1981 74.5008C49.0945 74.6061 49.0126 74.7308 48.9571 74.8677C48.9016 75.0047 48.8737 75.1512 48.8748 75.299C48.876 75.4467 48.9063 75.5928 48.9639 75.7289C49.0215 75.865 49.1053 75.9883 49.2106 76.092C49.3159 76.1957 49.4406 76.2776 49.5776 76.333C49.7145 76.3885 49.8611 76.4165 50.0088 76.4153C50.1566 76.4141 50.3027 76.3839 50.4387 76.3263C54.8972 74.4601 58.8795 71.6162 62.0915 68.0046C62.2896 67.7815 62.391 67.4887 62.3732 67.1908C62.3555 66.8929 62.2202 66.6143 61.997 66.4161C61.7738 66.218 61.4811 66.1167 61.1832 66.1344C60.8853 66.1521 60.6066 66.2875 60.4085 66.5106Z" fill="#93A6E6"/>
</g>
<defs>
<clipPath id="clip0_505_3838">
<rect width="72" height="72" fill="white" transform="translate(14 14)"/>
</clipPath>
</defs>
</svg>
