<svg width="100" height="100" viewBox="0 0 100 100" fill="none" xmlns="http://www.w3.org/2000/svg">
<g clip-path="url(#clip0_505_3812)">
<path d="M82.5673 56.1726H81.4899V46.4673C81.4899 44.9309 80.7251 43.5705 79.5572 42.7439V41.4224C79.5572 39.5055 77.9978 37.9462 76.081 37.9462H75.2765L78.3546 33.4293C79.3864 31.9153 78.994 29.844 77.4801 28.8121L56.5929 14.5781C55.8595 14.0782 54.9756 13.8937 54.1031 14.0592C53.674 14.1393 53.265 14.3037 52.8998 14.5429C52.5347 14.7821 52.2206 15.0913 51.9758 15.4528L33.9475 41.9076H28.9307L30.1411 29.6549C30.1547 29.5168 30.2444 29.3971 30.3696 29.35C31.929 28.7621 33.2804 27.6641 34.1747 26.2584C34.2452 26.1477 34.3781 26.0844 34.5156 26.0984L42.3843 26.8757C42.5184 26.889 42.6537 26.8757 42.7827 26.8366C42.9116 26.7975 43.0316 26.7334 43.1357 26.648C43.2399 26.5626 43.3262 26.4574 43.3898 26.3386C43.4533 26.2198 43.4928 26.0897 43.5061 25.9556C43.5193 25.8216 43.506 25.6862 43.4669 25.5573C43.4279 25.4283 43.3638 25.3083 43.2783 25.2042C43.1929 25.1 43.0878 25.0137 42.969 24.9502C42.8502 24.8866 42.72 24.8471 42.5859 24.8339L34.7173 24.0565C33.8039 23.967 32.9329 24.3879 32.4435 25.1569C31.7859 26.1905 30.7923 26.9977 29.6458 27.4299C28.7828 27.7553 28.1902 28.5305 28.099 29.4531L26.8688 41.9074H25.5606L27.4748 22.5287C27.5437 21.8312 28.1663 21.3188 28.8646 21.3887L44.7656 22.9595C45.0364 22.9862 45.3067 22.9043 45.5171 22.7317C45.7274 22.5592 45.8607 22.3101 45.8874 22.0394C45.9141 21.7686 45.8322 21.4983 45.6597 21.2879C45.4871 21.0775 45.2381 20.9443 44.9673 20.9176L29.0663 19.3468C27.2432 19.1669 25.6129 20.5036 25.4328 22.3269L23.8898 37.9462H21.2623C19.3456 37.9462 17.786 39.5055 17.786 41.4224V42.3238C16.2179 43.0458 15.1261 44.6309 15.1261 46.4673V81.4401C15.1261 83.9544 17.1716 86 19.6861 86H76.9299C79.4443 86 81.4899 83.9544 81.4899 81.4401V71.735H82.5673C83.8391 71.735 84.8737 70.7004 84.8737 69.4287V58.479C84.8738 57.2071 83.8391 56.1726 82.5673 56.1726ZM76.081 39.9982C76.8665 39.998 77.5054 40.637 77.5054 41.4225V41.9452C77.3145 41.9206 77.1224 41.9081 76.9299 41.9077H72.5769L73.8781 39.9982H76.081ZM53.6713 16.6081C53.765 16.4699 53.8851 16.3516 54.0248 16.2601C54.1645 16.1686 54.3209 16.1057 54.4851 16.075C54.649 16.0435 54.8176 16.0448 54.9811 16.0789C55.1446 16.1129 55.2996 16.1791 55.4374 16.2734L76.3246 30.5075C76.9036 30.9022 77.0538 31.6945 76.6592 32.2736L70.094 41.9073H68.5185L71.7372 37.1841C72.2592 36.4181 72.3023 35.4433 71.8492 34.6399C71.247 33.5726 71.0029 32.3158 71.1618 31.101C71.2799 30.1972 70.8822 29.3149 70.124 28.7982L59.2961 21.4193C58.5377 20.9025 57.5711 20.8552 56.7732 21.2957C55.7009 21.8878 54.4419 22.1202 53.2283 21.9503C52.3283 21.8241 51.4155 22.2305 50.9012 22.9849L38.0061 41.9074H36.4305L53.6713 16.6081ZM54.1231 34.0303C49.6553 34.0303 45.9878 37.514 45.689 41.9074H40.4888L52.5965 24.1404H52.5966C52.6298 24.0913 52.6745 24.0509 52.7267 24.0228C52.779 23.9947 52.8372 23.9797 52.8966 23.9791C52.9122 23.9791 52.9278 23.9803 52.9434 23.9824C54.5941 24.2133 56.3062 23.8974 57.7647 23.0921C57.8795 23.0285 58.0268 23.0377 58.1405 23.115L68.9685 30.494C69.0818 30.5714 69.1441 30.7052 69.1272 30.8352C68.9111 32.4874 69.2432 34.1965 70.0621 35.6481C70.1278 35.7646 70.1198 35.914 70.0418 36.0286L66.0357 41.9073H62.5576C62.2585 37.514 58.5912 34.0303 54.1231 34.0303ZM60.5002 41.9076H47.7462C48.0401 38.6466 50.7871 36.0823 54.1231 36.0823C57.4593 36.0822 60.2064 38.6466 60.5002 41.9076ZM19.8379 41.4224C19.8379 40.6369 20.4767 39.9979 21.2623 39.9979H23.6872L23.4986 41.9074H19.8379V41.4224ZM17.178 46.4673C17.178 45.0844 18.3031 43.9593 19.6861 43.9593H76.9299C78.313 43.9593 79.438 45.0844 79.438 46.4673V49.3141H17.178V46.4673ZM79.438 81.4401C79.438 82.823 78.313 83.9481 76.9299 83.9481H19.6861C18.3031 83.9481 17.178 82.823 17.178 81.4401V78.5933H22.7104C22.8451 78.5933 22.9785 78.5667 23.103 78.5152C23.2275 78.4636 23.3406 78.388 23.4358 78.2928C23.5311 78.1975 23.6066 78.0844 23.6582 77.96C23.7098 77.8355 23.7363 77.7021 23.7363 77.5674C23.7363 77.4327 23.7098 77.2993 23.6582 77.1748C23.6066 77.0504 23.5311 76.9373 23.4358 76.842C23.3406 76.7467 23.2275 76.6712 23.103 76.6196C22.9785 76.5681 22.8451 76.5415 22.7104 76.5415H17.178V51.366H79.438V56.1726H69.6833C66.6098 56.1726 63.9474 57.9641 62.6839 60.5574C62.6797 60.5661 62.6749 60.5746 62.6706 60.5833C62.6599 60.6053 62.6506 60.6283 62.6402 60.6505C62.4897 60.9701 62.3589 61.301 62.2525 61.6425L62.2516 61.6453C62.0193 62.3927 61.9014 63.171 61.9021 63.9538C61.9021 68.2444 65.3926 71.735 69.6831 71.735H79.4379V76.5415H29.2796C29.1449 76.5415 29.0115 76.5681 28.887 76.6196C28.7625 76.6712 28.6495 76.7467 28.5542 76.842C28.4589 76.9373 28.3834 77.0504 28.3318 77.1748C28.2803 77.2993 28.2537 77.4327 28.2537 77.5674C28.2537 77.7021 28.2803 77.8355 28.3318 77.96C28.3834 78.0844 28.4589 78.1975 28.5542 78.2928C28.6495 78.388 28.7625 78.4636 28.887 78.5152C29.0115 78.5667 29.1449 78.5933 29.2796 78.5933H79.438V81.4401ZM82.822 69.4286C82.822 69.5689 82.7078 69.6831 82.5673 69.6831H69.6835C67.5116 69.6831 65.6179 68.4683 64.6466 66.6825C64.5133 66.4377 64.3982 66.1834 64.3024 65.9217C64.0771 65.3077 63.9542 64.6448 63.9542 63.9538C63.9535 63.0945 64.1469 62.2461 64.5199 61.472C64.5603 61.3886 64.6025 61.3062 64.6466 61.2251C65.6179 59.4393 67.5116 58.2244 69.6835 58.2244H82.5673C82.7077 58.2244 82.822 58.3386 82.822 58.479V69.4286Z" fill="#93A6E6"/>
<path d="M69.9239 59.791C67.6286 59.791 65.7614 61.6584 65.7614 63.9535C65.7614 66.2487 67.6286 68.1159 69.9239 68.1159C72.2191 68.1159 74.0864 66.2487 74.0864 63.9535C74.0864 61.6584 72.2191 59.791 69.9239 59.791ZM69.9239 66.064C68.76 66.064 67.8132 65.1172 67.8132 63.9535C67.8132 62.7898 68.76 61.8429 69.9239 61.8429C71.0877 61.8429 72.0345 62.7897 72.0345 63.9535C72.0345 65.1173 71.0877 66.064 69.9239 66.064Z" fill="#93A6E6"/>
</g>
<defs>
<clipPath id="clip0_505_3812">
<rect width="72" height="72" fill="white" transform="translate(14 14)"/>
</clipPath>
</defs>
</svg>
