<svg width="100" height="100" viewBox="0 0 100 100" fill="none" xmlns="http://www.w3.org/2000/svg">
<g clip-path="url(#clip0_505_3821)">
<path d="M33.8937 14.2666C32.8456 14.2704 31.8415 14.6881 31.1 15.4287C30.3584 16.1694 29.9395 17.173 29.9344 18.2211V32.2557C29.9344 32.5969 30.0699 32.9242 30.3112 33.1655C30.5525 33.4068 30.8798 33.5423 31.221 33.5423C31.5623 33.5423 31.8895 33.4068 32.1308 33.1655C32.3721 32.9242 32.5077 32.5969 32.5077 32.2557V18.2162C32.5037 18.0331 32.5369 17.8511 32.6051 17.6812C32.6734 17.5112 32.7753 17.3568 32.9048 17.2273C33.0343 17.0978 33.1887 16.9959 33.3586 16.9276C33.5286 16.8594 33.7106 16.8262 33.8937 16.8302H82.4962C82.6793 16.8262 82.8614 16.8594 83.0313 16.9276C83.2013 16.9959 83.3556 17.0978 83.4851 17.2273C83.6146 17.3568 83.7166 17.5112 83.7848 17.6812C83.8531 17.8511 83.8862 18.0331 83.8823 18.2162V70.7781H74.9895C73.944 70.7806 72.9418 71.1961 72.2012 71.934C71.4605 72.6719 71.0414 73.6726 71.035 74.7181V83.6108H56.9083C56.5677 83.6108 56.241 83.7461 56.0002 83.987C55.7594 84.2278 55.6241 84.5545 55.6241 84.8951C55.6241 85.2357 55.7594 85.5623 56.0002 85.8032C56.241 86.044 56.5677 86.1793 56.9083 86.1793H73.6035C73.9427 86.1793 74.2722 86.0485 74.5145 85.811L86.0679 74.2431C86.3084 74.0062 86.4459 73.6841 86.4507 73.3466V18.2162C86.4456 17.169 86.0274 16.1661 85.2869 15.4256C84.5463 14.6851 83.5435 14.2668 82.4962 14.2617L33.8937 14.2666ZM64.6186 20.6975C61.467 20.6987 58.4445 21.95 56.2141 24.1767C53.9838 26.4034 52.7276 29.4239 52.7212 32.5755C52.7263 35.7276 53.9811 38.749 56.2104 40.9775C58.4397 43.2059 61.4617 44.4594 64.6138 44.4632C67.765 44.4581 70.7857 43.204 73.014 40.9757C75.2423 38.7475 76.4964 35.7268 76.5015 32.5755C76.4951 29.4256 75.2403 26.4066 73.012 24.1801C70.7837 21.9537 67.7686 20.7013 64.6186 20.6975ZM64.6186 23.2563C65.8426 23.255 67.0547 23.4952 68.1857 23.9631C69.3167 24.4311 70.3442 25.1176 71.2094 25.9833C72.0747 26.8489 72.7606 27.8768 73.228 29.008C73.6953 30.1393 73.9349 31.3516 73.933 32.5755C73.933 37.7367 69.7798 41.8948 64.6186 41.8948C59.4574 41.8948 55.2994 37.7367 55.2994 32.5755C55.2975 31.3512 55.5372 30.1385 56.0048 29.0069C56.4725 27.8754 57.1589 26.8473 58.0246 25.9815C58.8904 25.1158 59.9185 24.4294 61.05 23.9618C62.1815 23.4941 63.3942 23.2544 64.6186 23.2563ZM68.9317 28.7906L64.2164 34.4607L61.3813 31.5627C61.1406 31.3331 60.8202 31.2059 60.4875 31.2078C60.1549 31.2098 59.836 31.3407 59.5979 31.5731C59.3599 31.8055 59.2213 32.1212 59.2114 32.4537C59.2015 32.7862 59.3209 33.1096 59.5446 33.3557L63.3731 37.2812C63.9062 37.8239 64.7931 37.7852 65.2825 37.2036L70.9138 30.4432C71.0218 30.3129 71.1029 30.1626 71.1526 30.0008C71.2023 29.8391 71.2195 29.6691 71.2033 29.5007C71.1871 29.3323 71.1378 29.1687 71.0582 29.0194C70.9785 28.8701 70.8702 28.738 70.7394 28.6307C70.4768 28.4161 70.1408 28.3127 69.803 28.3426C69.4652 28.3725 69.1525 28.5333 68.9317 28.7906ZM33.6417 36.3313C28.8537 36.3313 24.8555 40.0047 24.8555 44.6183C24.8555 47.9574 25.912 50.8118 26.8909 54.1605C27.7972 57.2427 28.6743 60.7852 28.81 65.646H27.3659C25.1802 65.646 23.5228 67.5748 23.5228 69.7749V71.035H18.9916C16.3553 71.035 14.3296 73.3805 14.3296 76.0798V79.8308C14.3296 80.5432 14.9111 81.1151 15.6187 81.1151H16.7915V83.7805C16.7915 85.1374 17.9642 86.1842 19.2776 86.1842H48.001C48.6474 86.1882 49.2697 85.9389 49.7344 85.4895C50.1992 85.0402 50.4694 84.4267 50.4871 83.7805V81.1151H51.6599C51.9996 81.1138 52.325 80.9779 52.5648 80.7372C52.8046 80.4965 52.9393 80.1706 52.9393 79.8308V76.0798C52.9393 73.3805 50.9136 71.0398 48.2772 71.0398H44.061V69.7749C44.061 67.5748 42.3988 65.646 40.2131 65.646H38.4831C38.5929 61.7487 39.2337 57.8846 40.3876 54.1605C41.3665 50.8166 42.4182 47.9574 42.4182 44.6135C42.4182 40.0096 38.4297 36.3265 33.6369 36.3265L33.6417 36.3313ZM33.6417 38.8998C37.1407 38.8998 39.8642 41.4925 39.8642 44.6183C39.8642 47.4 38.9337 50.0073 37.9306 53.4384C36.8086 57.4147 36.1883 61.5157 36.0842 65.646H31.2041C31.0992 61.517 30.4773 57.4175 29.3528 53.4432C28.3496 50.0073 27.4192 47.4 27.4192 44.6183C27.4192 41.4925 30.1476 38.8998 33.6417 38.8998ZM54.3398 48.9121C53.9902 48.9121 53.6549 49.0509 53.4077 49.2981C53.1605 49.5453 53.0217 49.8806 53.0217 50.2302C53.0217 50.5798 53.1605 50.9151 53.4077 51.1623C53.6549 51.4095 53.9902 51.5484 54.3398 51.5484C54.6894 51.5484 55.0247 51.4095 55.2719 51.1623C55.5191 50.9151 55.658 50.5798 55.658 50.2302C55.658 49.8806 55.5191 49.5453 55.2719 49.2981C55.0247 49.0509 54.6894 48.9121 54.3398 48.9121ZM59.4768 48.9508C59.1362 48.9508 58.8095 49.0861 58.5687 49.327C58.3279 49.5678 58.1926 49.8945 58.1926 50.2351C58.1926 50.5757 58.3279 50.9023 58.5687 51.1432C58.8095 51.384 59.1362 51.5193 59.4768 51.5193H77.4513C77.792 51.5193 78.1186 51.384 78.3594 51.1432C78.6003 50.9023 78.7356 50.5757 78.7356 50.2351C78.7356 49.8945 78.6003 49.5678 78.3594 49.327C78.1186 49.0861 77.792 48.9508 77.4513 48.9508H59.4768ZM46.6344 55.3333C46.4613 55.3333 46.2898 55.3674 46.1299 55.4336C45.97 55.4999 45.8247 55.5969 45.7023 55.7193C45.5799 55.8418 45.4828 55.9871 45.4165 56.147C45.3503 56.3069 45.3162 56.4783 45.3162 56.6514C45.3162 56.8245 45.3503 56.9959 45.4165 57.1559C45.4828 57.3158 45.5799 57.4611 45.7023 57.5835C45.8247 57.7059 45.97 57.803 46.1299 57.8693C46.2898 57.9355 46.4613 57.9696 46.6344 57.9696C46.984 57.9696 47.3192 57.8307 47.5664 57.5835C47.8136 57.3363 47.9525 57.001 47.9525 56.6514C47.9525 56.3018 47.8136 55.9666 47.5664 55.7193C47.3192 55.4721 46.984 55.3333 46.6344 55.3333ZM51.7713 55.3623C51.4301 55.3623 51.1028 55.4979 50.8615 55.7392C50.6202 55.9805 50.4847 56.3078 50.4847 56.649C50.4847 56.9903 50.6202 57.3175 50.8615 57.5588C51.1028 57.8001 51.4301 57.9357 51.7713 57.9357H77.4513C77.792 57.9357 78.1186 57.8004 78.3594 57.5595C78.6003 57.3187 78.7356 56.992 78.7356 56.6514C78.7356 56.3108 78.6003 55.9842 78.3594 55.7433C78.1186 55.5025 77.792 55.3672 77.4513 55.3672L51.7713 55.3623ZM54.3398 61.7593C54.1603 61.7484 53.9805 61.7744 53.8114 61.8356C53.6423 61.8968 53.4875 61.9919 53.3565 62.1152C53.2256 62.2384 53.1212 62.3871 53.0499 62.5522C52.9786 62.7173 52.9418 62.8952 52.9418 63.0751C52.9418 63.2549 52.9786 63.4328 53.0499 63.5979C53.1212 63.763 53.2256 63.9117 53.3565 64.035C53.4875 64.1582 53.6423 64.2534 53.8114 64.3146C53.9805 64.3758 54.1603 64.4017 54.3398 64.3908C54.6894 64.3908 55.0247 64.2519 55.2719 64.0047C55.5191 63.7575 55.658 63.4222 55.658 63.0726C55.658 62.723 55.5191 62.3878 55.2719 62.1406C55.0247 61.8934 54.6894 61.7545 54.3398 61.7545V61.7593ZM59.4768 61.7836C59.1362 61.7836 58.8095 61.9189 58.5687 62.1597C58.3279 62.4005 58.1926 62.7272 58.1926 63.0678C58.1926 63.4084 58.3279 63.7351 58.5687 63.9759C58.8095 64.2167 59.1362 64.352 59.4768 64.352H77.4513C77.792 64.352 78.1186 64.2167 78.3594 63.9759C78.6003 63.7351 78.7356 63.4084 78.7356 63.0678C78.7356 62.7272 78.6003 62.4005 78.3594 62.1597C78.1186 61.9189 77.792 61.7836 77.4513 61.7836H59.4768ZM27.3659 68.2145H40.218C40.8722 68.2145 41.4925 68.8154 41.4925 69.7749V71.035H33.7968C33.4562 71.035 33.1295 71.1703 32.8887 71.4111C32.6478 71.6519 32.5125 71.9786 32.5125 72.3192C32.5125 72.6598 32.6478 72.9865 32.8887 73.2273C33.1295 73.4681 33.4562 73.6034 33.7968 73.6034H48.2821C49.387 73.6034 50.3756 74.6211 50.3756 76.0798V78.5417H16.9078V76.0798C16.9078 74.6211 17.8964 73.6083 19.0013 73.6083H28.6646C29.0053 73.6083 29.3319 73.473 29.5727 73.2321C29.8136 72.9913 29.9489 72.6646 29.9489 72.324C29.9489 71.9834 29.8136 71.6568 29.5727 71.4159C29.3319 71.1751 29.0053 71.0398 28.6646 71.0398H26.0962V69.7749C26.0962 68.8154 26.7165 68.2145 27.3707 68.2145H27.3659ZM74.9895 73.3514H83.3492L73.6083 83.0826V74.7229C73.6083 73.933 74.2044 73.3514 74.9943 73.3514H74.9895ZM19.3648 81.1151H47.9235V83.6157H19.3648V81.1151Z" fill="#93A6E6"/>
</g>
<defs>
<clipPath id="clip0_505_3821">
<rect width="72" height="72" fill="white" transform="translate(14 14)"/>
</clipPath>
</defs>
</svg>
