<svg width="100" height="100" viewBox="0 0 100 100" fill="none" xmlns="http://www.w3.org/2000/svg">
<g clip-path="url(#clip0_505_3875)">
<g clip-path="url(#clip1_505_3875)">
<path d="M46.7321 35.1493L54.5738 29.5225L55.3808 30.6551C56.32 31.9659 58.2804 30.5592 57.3412 29.2484L56.5388 28.1158C56.799 27.9295 56.9748 27.6475 57.0278 27.3316C57.0808 27.0157 57.0066 26.6917 56.8215 26.4305L54.0131 22.5027C53.9203 22.3737 53.803 22.2643 53.668 22.1807C53.533 22.0972 53.3829 22.0411 53.2263 22.0156C53.0696 21.9902 52.9095 21.9959 52.7551 22.0324C52.6006 22.069 52.4549 22.1357 52.3262 22.2287L40.5681 30.6643C40.3073 30.8498 40.1305 31.1315 40.0767 31.4474C40.0228 31.7634 40.0963 32.0878 40.2809 32.3496L43.0894 36.2774C43.4769 36.8254 44.2291 36.9442 44.7762 36.5514L46.8826 39.5064L43.9374 41.6164C43.6792 41.8033 43.5052 42.0847 43.4531 42.3995C43.401 42.7142 43.4751 43.0368 43.6592 43.2971L20.1113 60.1775C20.0185 60.0485 19.9013 59.9391 19.7663 59.8555C19.6313 59.772 19.4812 59.7159 19.3245 59.6904C19.1679 59.665 19.0077 59.6707 18.8533 59.7072C18.6989 59.7438 18.5531 59.8105 18.4244 59.9035L14.5035 62.7169C14.2447 62.903 14.0697 63.1841 14.0168 63.4989C13.9639 63.8137 14.0372 64.1367 14.2209 64.3976L19.8423 72.2623C20.2298 72.8104 20.9821 72.9337 21.5246 72.55L25.4455 69.7366C25.5749 69.6444 25.685 69.5275 25.7692 69.3925C25.8535 69.2576 25.9104 69.1074 25.9367 68.9504C25.9629 68.7935 25.958 68.6329 25.9223 68.4778C25.8865 68.3227 25.8205 68.1763 25.7281 68.0468L42.9936 55.6697C44.3021 54.7288 42.8979 52.7604 41.5894 53.7012L24.3239 66.0783L21.5155 62.146L45.0589 45.2702L47.8673 49.198L45.5467 50.8604C44.2383 51.7967 45.6425 53.7652 46.9509 52.8243L49.2715 51.1664C49.6545 51.7099 50.4113 51.8378 50.9539 51.4496L53.8991 49.3395L56.0054 52.2854C55.7445 52.4709 55.5678 52.7526 55.5139 53.0685C55.4601 53.3845 55.5335 53.7089 55.7182 53.9707L58.5266 57.8985C58.9141 58.4465 59.6755 58.5744 60.2135 58.1816L71.9852 49.746C72.1143 49.6534 72.2239 49.5362 72.3078 49.4012C72.3916 49.2661 72.4481 49.1158 72.4739 48.9588C72.4997 48.8019 72.4944 48.6414 72.4583 48.4865C72.4222 48.3316 72.3559 48.1854 72.2633 48.0562L69.4549 44.1238C69.3621 43.9948 69.2448 43.8854 69.1098 43.8019C68.9748 43.7183 68.8247 43.6622 68.6681 43.6367C68.5114 43.6113 68.3513 43.617 68.1969 43.6535C68.0424 43.6901 67.8967 43.7568 67.768 43.8498L60.2636 33.3315C59.3245 32.0207 57.364 33.4274 58.3032 34.7382L65.8075 45.2519L57.9658 50.8695L46.7321 35.1493ZM52.7547 24.8959L54.1589 26.8598L44.3477 33.8933L42.9435 31.9294L52.7547 24.8959ZM53.7623 35.5375C53.5429 35.545 53.3298 35.6123 53.1457 35.732C52.9617 35.8518 52.8137 36.0195 52.7176 36.2172C52.6215 36.4149 52.581 36.635 52.6004 36.854C52.6198 37.073 52.6983 37.2826 52.8277 37.4603L57.747 44.3385C58.6771 45.6538 60.6466 44.2517 59.712 42.9363L54.7972 36.0627C54.6826 35.8952 54.5277 35.7593 54.3468 35.6675C54.166 35.5757 53.9649 35.531 53.7623 35.5375ZM48.2822 41.4748L52.4949 47.3665L50.5344 48.7732L46.3218 42.8815L48.2822 41.4748ZM68.2011 46.5124L69.6053 48.4763L59.7895 55.5098L58.3853 53.5459L68.2011 46.5124ZM18.853 62.5661L23.0656 68.467L21.1052 69.8737L16.888 63.9728L18.853 62.5661ZM79.9591 70.7094V74.3267H41.3614C41.2028 74.3273 41.0458 74.3592 40.8994 74.4205C40.7531 74.4819 40.6202 74.5716 40.5085 74.6844C40.3967 74.7972 40.3082 74.931 40.248 75.078C40.1879 75.2251 40.1572 75.3826 40.1578 75.5415V82.7851C40.1578 83.4519 40.6912 83.9954 41.3614 84H84.7873C84.9467 84.0006 85.1047 83.9696 85.2521 83.9087C85.3995 83.8479 85.5334 83.7584 85.6461 83.6455C85.7589 83.5326 85.8482 83.3984 85.9089 83.2507C85.9696 83.1031 86.0006 82.9448 86 82.7851V75.5415C86.0006 75.3818 85.9696 75.2236 85.9089 75.0759C85.8482 74.9282 85.7589 74.7941 85.6461 74.6811C85.5334 74.5682 85.3995 74.4788 85.2521 74.4179C85.1047 74.3571 84.9467 74.3261 84.7873 74.3267H82.3709V69.4946C82.3697 69.176 82.2431 68.8706 82.0187 68.6449C81.7942 68.4192 81.4899 68.2912 81.1719 68.2888H44.9221C43.2808 68.3071 43.3629 70.7186 44.9814 70.7094H79.9591ZM42.5742 76.7473H83.5882V81.5794H42.5696L42.5742 76.7473Z" fill="#93A6E6"/>
</g>
</g>
<defs>
<clipPath id="clip0_505_3875">
<rect width="72" height="67" fill="white" transform="translate(14 17)"/>
</clipPath>
<clipPath id="clip1_505_3875">
<rect width="72" height="72" fill="white" transform="translate(14 17)"/>
</clipPath>
</defs>
</svg>
