<svg width="87" height="28" viewBox="0 0 87 28" fill="none" xmlns="http://www.w3.org/2000/svg">
<path fill-rule="evenodd" clip-rule="evenodd" d="M10.8201 17.8196L15.3054 17.9104L15.3395 18.2821L7 20L13.5155 5L20 19.9309H17.3996L13.5387 10.8539L10.8201 17.8196Z" fill="#686767"/>
<path fill-rule="evenodd" clip-rule="evenodd" d="M24.249 23.5138C18.9489 29.0942 9.89786 29.6132 4.3778 24.2552C3.18368 23.2374 0.327339 20.2179 0.110442 14.8351L0.110352 0L14.2406 0.00424031C19.6863 0 22.5855 2.53777 23.8508 3.70795C29.3709 9.06602 29.5491 17.9334 24.249 23.5138ZM5.3508 23.1135C4.35642 22.266 1.81418 19.6147 1.61044 14.8041L1.61036 1.50045L14.2401 1.50424L14.2417 1.50424C19.1193 1.50044 21.6665 3.73187 22.8188 4.79666C27.7361 9.58301 27.8917 17.5003 23.1614 22.4808C18.3901 27.5044 10.2967 27.91 5.42255 23.1788L5.38773 23.145L5.3508 23.1135Z" fill="#686767"/>
<path d="M33.4859 13.2015C32.8227 12.7393 32.491 12.086 32.491 11.2419C32.491 10.3977 32.8227 9.74951 33.4859 9.29728C34.1542 8.84505 35.0135 8.61893 36.0637 8.61893H38.5585C38.5585 8.03103 38.4354 7.62151 38.1891 7.39037C37.9429 7.15923 37.5108 7.04366 36.8927 7.04366C36.2797 7.04366 35.8476 7.19692 35.5964 7.50343C35.3501 7.80492 35.0461 7.95566 34.6844 7.95566H33.5613C33.4256 7.95566 33.3126 7.91295 33.2221 7.82753C33.1367 7.73708 33.094 7.62654 33.094 7.49589C33.094 6.05378 34.4633 5.33272 37.2018 5.33272C38.3977 5.33272 39.3574 5.60155 40.081 6.1392C40.8045 6.67183 41.1663 7.49841 41.1663 8.61893V13.2844C41.1663 13.4201 41.1236 13.5307 41.0382 13.6161C40.9528 13.7015 40.8422 13.7442 40.7066 13.7442H39.2519C39.1162 13.7442 39.0057 13.7015 38.9203 13.6161C38.8348 13.5256 38.7921 13.4151 38.7921 13.2844V13.0508C37.9982 13.6186 37.0812 13.9 36.041 13.895C35.0059 13.895 34.1542 13.6638 33.4859 13.2015ZM36.2446 10.3299C35.8928 10.3299 35.6139 10.4153 35.4079 10.5861C35.2069 10.757 35.1064 10.9781 35.1064 11.2494C35.1064 11.5207 35.212 11.7444 35.423 11.9202C35.634 12.0961 35.933 12.184 36.3199 12.184C37.0937 12.184 37.8399 11.9579 38.5585 11.5057V10.3299H36.2446Z" fill="#686767"/>
<path d="M49.513 7.39791L48.3523 7.35269C47.6739 7.35269 47.0257 7.72452 46.4077 8.46819V13.2844C46.4077 13.4201 46.3625 13.5307 46.272 13.6161C46.1866 13.7015 46.0786 13.7442 45.9479 13.7442H44.2596C44.1239 13.7442 44.0134 13.7015 43.928 13.6161C43.8425 13.5307 43.7998 13.4201 43.7998 13.2844V5.95077C43.7998 5.8151 43.8425 5.70456 43.928 5.61914C44.0184 5.52869 44.1289 5.48347 44.2596 5.48347H45.9479C46.0836 5.48347 46.1941 5.52869 46.2796 5.61914C46.365 5.70456 46.4077 5.8151 46.4077 5.95077V6.42561C46.9202 6.05378 47.4126 5.77993 47.885 5.60406C48.3623 5.42317 48.9854 5.33272 49.7542 5.33272C49.8899 5.33272 50.0004 5.37795 50.0858 5.46839C50.1763 5.55381 50.2215 5.66185 50.2215 5.79249V6.93814C50.2215 7.07381 50.1763 7.18436 50.0858 7.26978C50.0004 7.3552 49.8899 7.39791 49.7542 7.39791H49.513Z" fill="#686767"/>
<path d="M52.0787 3.40321C52.0787 3.26754 52.1214 3.15699 52.2068 3.07157C52.2972 2.98112 52.4078 2.9359 52.5384 2.9359H54.2268C54.3574 2.9359 54.4654 2.98112 54.5509 3.07157C54.6413 3.15699 54.6865 3.26754 54.6865 3.40321V5.71712C55.5005 5.46086 56.2266 5.33272 56.8648 5.33272C58.1009 5.33272 59.0832 5.70205 59.8118 6.44069C60.5404 7.17431 60.9047 8.23454 60.9047 9.62138C60.9047 12.4704 59.3093 13.895 56.1186 13.895C55.39 13.895 54.6338 13.8146 53.8499 13.6538C53.0711 13.488 52.4806 13.287 52.0787 13.0508V3.40321ZM54.6865 7.45821V11.9051C55.1187 12.0207 55.6689 12.0785 56.3372 12.0785C57.0055 12.0785 57.4853 11.885 57.7768 11.4981C58.0732 11.1112 58.2215 10.4856 58.2215 9.62138C58.2215 8.75712 58.0757 8.13153 57.7843 7.74462C57.4979 7.35269 57.0105 7.15672 56.3221 7.15672C55.8799 7.15672 55.3347 7.25722 54.6865 7.45821Z" fill="#686767"/>
<path d="M63.0709 3.9082V3.65193C63.0709 3.38562 63.1463 3.17458 63.297 3.01881C63.4528 2.86304 63.6663 2.78516 63.9377 2.78516H64.8723C65.1386 2.78516 65.3496 2.86304 65.5054 3.01881C65.6612 3.16955 65.7391 3.38059 65.7391 3.65193V3.9082C65.7391 4.17451 65.6612 4.38555 65.5054 4.54132C65.3547 4.69709 65.1436 4.77497 64.8723 4.77497H63.9377C63.6714 4.77497 63.4603 4.69709 63.3045 4.54132C63.1488 4.38555 63.0709 4.17451 63.0709 3.9082ZM63.101 13.2844V6.13166C63.101 5.996 63.1437 5.88545 63.2292 5.80003C63.3196 5.71461 63.4302 5.6719 63.5608 5.6719H65.2491C65.3848 5.6719 65.4953 5.71712 65.5808 5.80757C65.6662 5.89299 65.7089 6.00102 65.7089 6.13166V13.2844C65.7089 13.4201 65.6637 13.5307 65.5732 13.6161C65.4878 13.7015 65.3798 13.7442 65.2491 13.7442H63.5608C63.4251 13.7442 63.3146 13.7015 63.2292 13.6161C63.1437 13.5307 63.101 13.4201 63.101 13.2844Z" fill="#686767"/>
<path d="M70.0006 11.3022C70.6789 11.3022 71.0181 11.6439 71.0181 12.3272V12.8021C71.0181 13.1186 70.9302 13.3674 70.7543 13.5483C70.5834 13.7291 70.3322 13.8196 70.0006 13.8196H69.0735C68.7419 13.8196 68.4881 13.7291 68.3122 13.5483C68.1414 13.3674 68.056 13.1186 68.056 12.8021V12.3272C68.056 11.9956 68.1439 11.7418 68.3198 11.566C68.4956 11.3901 68.7469 11.3022 69.0735 11.3022H70.0006ZM69.0735 7.85014C68.3952 7.85014 68.056 7.50846 68.056 6.82509V6.35024C68.056 6.03368 68.1439 5.78495 68.3198 5.60406C68.4956 5.42317 68.7469 5.33272 69.0735 5.33272H70.0006C70.3322 5.33272 70.5834 5.42317 70.7543 5.60406C70.9302 5.78495 71.0181 6.03368 71.0181 6.35024V6.82509C71.0181 7.50846 70.6789 7.85014 70.0006 7.85014H69.0735Z" fill="#686767"/>
<path d="M73.3426 13.2844V5.95077C73.3426 5.8151 73.3853 5.70456 73.4707 5.61914C73.5611 5.52869 73.6717 5.48347 73.8023 5.48347H75.4907C75.6263 5.48347 75.7369 5.52869 75.8223 5.61914C75.9077 5.70456 75.9504 5.8151 75.9504 5.95077V6.42561C76.3122 6.07388 76.6665 5.80505 77.0132 5.61914C77.3649 5.42819 77.787 5.33272 78.2794 5.33272C79.4502 5.33272 80.3371 5.8151 80.94 6.77986C81.8747 5.81008 82.8319 5.3277 83.8117 5.33272C84.7966 5.33272 85.5729 5.62919 86.1407 6.22211C86.7135 6.81001 86.9999 7.72201 86.9999 8.95811V13.2844C86.9999 13.4201 86.9572 13.5307 86.8718 13.6161C86.7864 13.7015 86.6758 13.7442 86.5402 13.7442H84.8594C84.7237 13.7442 84.6106 13.7015 84.5202 13.6161C84.4348 13.5256 84.3921 13.4151 84.3921 13.2844V8.95811C84.3921 7.75216 83.9549 7.1517 83.0806 7.15672C82.548 7.15672 81.9978 7.54112 81.43 8.30991C81.4601 8.52598 81.4752 8.74204 81.4752 8.95811V13.2844C81.4752 13.4201 81.43 13.5307 81.3395 13.6161C81.2541 13.7015 81.1461 13.7442 81.0154 13.7442H79.3346C79.199 13.7442 79.0859 13.7015 78.9954 13.6161C78.91 13.5256 78.8673 13.4151 78.8673 13.2844V8.95811C78.8673 7.75216 78.4302 7.1517 77.5558 7.15672C76.9981 7.15672 76.463 7.51599 75.9504 8.23454V13.2844C75.9504 13.4201 75.9052 13.5307 75.8148 13.6161C75.7293 13.7015 75.6213 13.7442 75.4907 13.7442H73.8023C73.6667 13.7442 73.5561 13.7015 73.4707 13.6161C73.3853 13.5307 73.3426 13.4201 73.3426 13.2844Z" fill="#686767"/>
<path d="M34.6742 23.6851C34.0435 23.6851 33.5153 23.4633 33.0898 23.0197C32.6673 22.576 32.4561 21.9408 32.4561 21.1139C32.4561 20.284 32.6749 19.6487 33.1124 19.2081C33.5531 18.7645 34.1446 18.5426 34.8869 18.5426C35.2702 18.5426 35.7063 18.6196 36.1952 18.7735V17.3838C36.1952 17.3023 36.2208 17.2359 36.2722 17.1846C36.3265 17.1303 36.3929 17.1031 36.4713 17.1031H37.4808C37.5623 17.1031 37.6287 17.1303 37.68 17.1846C37.7343 17.2359 37.7615 17.3023 37.7615 17.3838V23.3184C37.7615 23.3969 37.7343 23.4633 37.68 23.5176C37.6287 23.5689 37.5623 23.5946 37.4808 23.5946H36.6117C36.5302 23.5946 36.4638 23.5689 36.4125 23.5176C36.3612 23.4633 36.3355 23.3969 36.3355 23.3184V23.1781C35.8587 23.5161 35.3049 23.6851 34.6742 23.6851ZM35.2129 19.6381C34.7964 19.6381 34.5022 19.7558 34.3302 19.9912C34.1581 20.2236 34.0721 20.5978 34.0721 21.1139C34.0721 21.6299 34.1536 22.0056 34.3166 22.241C34.4795 22.4764 34.724 22.5941 35.0499 22.5941C35.3789 22.5941 35.7606 22.4583 36.1952 22.1867V19.8192C35.8059 19.6985 35.4785 19.6381 35.2129 19.6381Z" fill="#686767"/>
<path d="M39.5994 17.6871V17.5332C39.5994 17.3732 39.6446 17.2465 39.7352 17.1529C39.8287 17.0594 39.957 17.0126 40.1199 17.0126H40.6813C40.8412 17.0126 40.968 17.0594 41.0615 17.1529C41.1551 17.2434 41.2018 17.3702 41.2018 17.5332V17.6871C41.2018 17.847 41.1551 17.9738 41.0615 18.0673C40.971 18.1609 40.8442 18.2077 40.6813 18.2077H40.1199C39.96 18.2077 39.8332 18.1609 39.7397 18.0673C39.6461 17.9738 39.5994 17.847 39.5994 17.6871ZM39.6175 23.3184V19.0225C39.6175 18.941 39.6431 18.8746 39.6944 18.8233C39.7487 18.772 39.8151 18.7463 39.8936 18.7463H40.9076C40.9891 18.7463 41.0555 18.7735 41.1068 18.8278C41.1581 18.8791 41.1837 18.944 41.1837 19.0225V23.3184C41.1837 23.3999 41.1566 23.4663 41.1023 23.5176C41.0509 23.5689 40.9861 23.5946 40.9076 23.5946H39.8936C39.8121 23.5946 39.7457 23.5689 39.6944 23.5176C39.6431 23.4663 39.6175 23.3999 39.6175 23.3184Z" fill="#686767"/>
<path d="M45.0496 23.2143C44.3646 23.2143 43.8108 23.0076 43.3883 22.5941C42.9688 22.1807 42.7591 21.6073 42.7591 20.8739C42.7591 20.1406 42.999 19.5687 43.4788 19.1583C43.9587 18.7479 44.6467 18.5426 45.543 18.5426C45.9806 18.5426 46.4348 18.5924 46.9056 18.692C47.3764 18.7886 47.731 18.9078 47.9694 19.0496V23.2415C47.9694 23.9144 47.7476 24.4109 47.304 24.7308C46.8603 25.0537 46.2372 25.2152 45.4344 25.2152C44.6347 25.2152 44.0175 25.1141 43.5829 24.9119C43.1514 24.7127 42.9356 24.3822 42.9356 23.9205C42.9356 23.839 42.9613 23.7711 43.0126 23.7168C43.0669 23.6655 43.1348 23.6398 43.2163 23.6398H43.8908C44.108 23.6398 44.2816 23.7198 44.4113 23.8797C44.5773 24.085 44.8716 24.1876 45.2941 24.1876C45.7196 24.1876 46.0108 24.1182 46.1677 23.9793C46.3247 23.8405 46.4031 23.5946 46.4031 23.2415V23.0287C45.9203 23.1524 45.4691 23.2143 45.0496 23.2143ZM45.448 19.6381C44.7327 19.6351 44.3751 20.0486 44.3751 20.8785C44.3751 21.7054 44.7237 22.1188 45.4208 22.1188C45.7105 22.1188 46.038 22.0735 46.4031 21.983V19.7377C46.1436 19.6683 45.8252 19.6351 45.448 19.6381Z" fill="#686767"/>
<path d="M49.8118 17.6871V17.5332C49.8118 17.3732 49.8571 17.2465 49.9476 17.1529C50.0412 17.0594 50.1694 17.0126 50.3324 17.0126H50.8937C51.0537 17.0126 51.1804 17.0594 51.274 17.1529C51.3675 17.2434 51.4143 17.3702 51.4143 17.5332V17.6871C51.4143 17.847 51.3675 17.9738 51.274 18.0673C51.1834 18.1609 51.0567 18.2077 50.8937 18.2077H50.3324C50.1725 18.2077 50.0457 18.1609 49.9522 18.0673C49.8586 17.9738 49.8118 17.847 49.8118 17.6871ZM49.8299 23.3184V19.0225C49.8299 18.941 49.8556 18.8746 49.9069 18.8233C49.9612 18.772 50.0276 18.7463 50.1061 18.7463H51.1201C51.2016 18.7463 51.2679 18.7735 51.3192 18.8278C51.3706 18.8791 51.3962 18.944 51.3962 19.0225V23.3184C51.3962 23.3999 51.369 23.4663 51.3147 23.5176C51.2634 23.5689 51.1985 23.5946 51.1201 23.5946H50.1061C50.0246 23.5946 49.9582 23.5689 49.9069 23.5176C49.8556 23.4663 49.8299 23.3999 49.8299 23.3184Z" fill="#686767"/>
<path d="M55.6152 22.6122L56.2354 22.5579H56.4028C56.4843 22.5579 56.5507 22.5836 56.602 22.6349C56.6563 22.6862 56.6835 22.7526 56.6835 22.8341V23.3184C56.6835 23.3848 56.6563 23.4452 56.602 23.4995C56.5507 23.5508 56.4843 23.5825 56.4028 23.5946C56.095 23.6549 55.6936 23.6851 55.1987 23.6851C53.901 23.6851 53.2522 23.0061 53.2522 21.648V17.3838C53.2522 17.3023 53.2778 17.2359 53.3291 17.1846C53.3835 17.1303 53.4499 17.1031 53.5283 17.1031H54.5423C54.6208 17.1031 54.6857 17.1303 54.737 17.1846C54.7913 17.2359 54.8185 17.3023 54.8185 17.3838V18.8957H56.0814C56.1599 18.8957 56.2248 18.9214 56.2761 18.9727C56.3304 19.024 56.3576 19.0904 56.3576 19.1719V19.7106C56.3576 19.792 56.3304 19.8584 56.2761 19.9097C56.2248 19.961 56.1599 19.9867 56.0814 19.9867H54.8185V21.648C54.8185 21.9559 54.8909 22.1943 55.0358 22.3633C55.1806 22.5292 55.3738 22.6122 55.6152 22.6122Z" fill="#686767"/>
<path d="M58.4218 23.2686C58.0234 22.991 57.8243 22.5987 57.8243 22.0917C57.8243 21.5847 58.0234 21.1953 58.4218 20.9237C58.8232 20.6521 59.3392 20.5163 59.97 20.5163H61.4683C61.4683 20.1632 61.3944 19.9173 61.2465 19.7785C61.0987 19.6396 60.8391 19.5702 60.4679 19.5702C60.0997 19.5702 59.8402 19.6623 59.6893 19.8464C59.5414 20.0274 59.3589 20.118 59.1416 20.118H58.4671C58.3856 20.118 58.3177 20.0923 58.2634 20.041C58.2121 19.9867 58.1864 19.9203 58.1864 19.8418C58.1864 18.9757 59.0088 18.5426 60.6535 18.5426C61.3718 18.5426 61.9482 18.7041 62.3828 19.027C62.8173 19.3469 63.0346 19.8433 63.0346 20.5163V23.3184C63.0346 23.3999 63.009 23.4663 62.9577 23.5176C62.9064 23.5689 62.84 23.5946 62.7585 23.5946H61.8848C61.8033 23.5946 61.7369 23.5689 61.6856 23.5176C61.6343 23.4633 61.6087 23.3969 61.6087 23.3184V23.1781C61.1319 23.5191 60.5811 23.6881 59.9564 23.6851C59.3347 23.6851 58.8232 23.5463 58.4218 23.2686ZM60.0786 21.5439C59.8674 21.5439 59.6999 21.5952 59.5761 21.6978C59.4554 21.8004 59.3951 21.9332 59.3951 22.0962C59.3951 22.2591 59.4584 22.3934 59.5852 22.4991C59.7119 22.6047 59.8915 22.6575 60.1239 22.6575C60.5886 22.6575 61.0368 22.5217 61.4683 22.2501V21.5439H60.0786Z" fill="#686767"/>
<path d="M64.877 23.3184V17.3838C64.877 17.3023 64.9027 17.2359 64.954 17.1846C65.0083 17.1303 65.0747 17.1031 65.1532 17.1031H66.1672C66.2456 17.1031 66.3105 17.1303 66.3618 17.1846C66.4161 17.2359 66.4433 17.3023 66.4433 17.3838V23.3184C66.4433 23.3969 66.4161 23.4633 66.3618 23.5176C66.3105 23.5689 66.2456 23.5946 66.1672 23.5946H65.1532C65.0747 23.5946 65.0083 23.5689 64.954 23.5176C64.9027 23.4633 64.877 23.3969 64.877 23.3184Z" fill="#686767"/>
</svg>
