<svg width="24" height="24" viewBox="0 0 24 24" fill="none" xmlns="http://www.w3.org/2000/svg">
<path d="M18 12.5C18 10.7761 17.3152 9.12279 16.0962 7.90381C14.8772 6.68482 13.2239 6 11.5 6" stroke="white" stroke-width="1.5"/>
<path d="M22 12.5C22 6.701 17.299 2 11.5 2" stroke="white" stroke-width="1.5"/>
<path d="M3.871 14.5596C2.73222 12.5496 2.07404 10.3034 1.948 7.99663L5.965 7.51562L7.379 12.4656L3.871 14.5586V14.5596ZM3.871 14.5596C4.53888 15.7346 5.36231 16.814 6.319 17.7686C7.299 18.7486 8.379 19.5636 9.529 20.2156M9.529 20.2156C11.5384 21.3541 13.7839 22.0123 16.09 22.1386L16.572 18.1216L11.622 16.7076L9.529 20.2156Z" stroke="white" stroke-width="1.5"/>
</svg>
