<svg width="32" height="32" viewBox="0 0 32 32" fill="none" xmlns="http://www.w3.org/2000/svg">
<g clip-path="url(#clip0_505_3097)">
<path d="M22.496 32C11.3753 31.8709 -2.55217 17.5874 0.440002 6.34149C1.04614 3.04456 6.89126 -2.64327 10.6918 1.39476C12.2029 2.99564 14.149 4.24233 14.0989 6.71785C14.1099 8.27955 13.3639 9.48701 12.2344 10.4984C10.9554 11.7774 10.8371 13.8119 11.9592 15.2306C13.3408 16.9791 14.9934 18.6316 16.7421 20.0137C18.1609 21.1356 20.1952 21.0173 21.4743 19.7383L21.992 19.2207C22.8605 18.3522 24.0193 17.8738 25.255 17.8738C27.7275 17.8221 28.9818 19.7736 30.5782 21.2809C34.6101 25.1157 28.9424 30.9044 25.6314 31.5327C24.6655 31.8447 23.6141 32 22.496 32ZM7.54063 1.37407C5.23557 1.28359 2.16136 4.62901 1.78949 6.60744C-0.63254 15.8268 9.00916 26.435 17.3039 29.5739C21.3421 31.0179 25.0455 31.2224 28.0947 28.6581C30.1273 26.9179 31.6961 24.3381 29.6061 22.253L27.5458 20.1929C26.3469 18.9421 24.1627 18.9424 22.9641 20.1929L22.4464 20.7105C20.6742 22.4828 17.8551 22.6468 15.8893 21.092C14.9736 20.3677 14.0825 19.5737 13.2408 18.732C12.3988 17.8899 11.6047 16.9988 10.8808 16.0834C9.32603 14.1177 9.49007 11.2988 11.2623 9.52637L11.7799 9.00872C13.0308 7.81089 13.0304 5.625 11.7799 4.42705L9.71965 2.36676C9.05627 1.70332 8.33673 1.37407 7.54063 1.37407Z" fill="#1E3685"/>
<path d="M25.7536 12.7357C25.4365 12.7357 25.1514 12.5149 25.0821 12.1923C24.804 10.8913 24.155 9.69868 23.2136 8.75854C22.2601 7.80336 21.0468 7.14952 19.7246 6.87828C19.3528 6.80167 19.1135 6.43818 19.19 6.06638C19.2667 5.69457 19.6302 5.45525 20.0019 5.53186C21.5915 5.85923 23.0382 6.63889 24.1857 7.78642C25.3145 8.9138 26.0927 10.3439 26.4263 11.9041C26.5059 12.2752 26.2696 12.6407 25.8984 12.7203C25.8499 12.7307 25.8013 12.7357 25.7536 12.7357Z" fill="#1E3685"/>
<path d="M29.6368 16.5973C29.592 16.5973 29.5465 16.5929 29.5008 16.5837C29.1286 16.509 28.8875 16.1467 28.9622 15.7745C29.6782 12.2088 28.5703 8.54482 25.9987 5.97313C23.4224 3.39681 19.7523 2.29009 16.1812 3.01289C15.8091 3.08856 15.4465 2.84761 15.3712 2.47549C15.2959 2.10344 15.5365 1.74076 15.9085 1.66546C19.9326 0.850992 24.0678 2.098 26.9708 5.001C29.8685 7.89876 31.1168 12.0273 30.3101 16.045C30.2445 16.3716 29.9575 16.5973 29.6368 16.5973Z" fill="#1E3685"/>
</g>
<defs>
<clipPath id="clip0_505_3097">
<rect width="32" height="32" fill="white"/>
</clipPath>
</defs>
</svg>
