<svg width="32" height="32" viewBox="0 0 32 32" fill="none" xmlns="http://www.w3.org/2000/svg">
<path d="M17.0718 24C8.87196 24 4.19488 18.3694 4 9H8.10743C8.24235 15.8769 11.2705 18.7898 13.669 19.3904V9H17.5365V14.9309C19.9051 14.6757 22.3935 11.973 23.233 9H27.1006C26.7842 10.5419 26.1537 12.0018 25.2483 13.2884C24.3429 14.575 23.1823 15.6607 21.8389 16.4775C23.3384 17.2238 24.6629 18.2802 25.7249 19.5769C26.7869 20.8736 27.5624 22.3811 28 24H23.7427C23.3498 22.5939 22.5513 21.3351 21.4473 20.3816C20.3433 19.428 18.9829 18.8221 17.5365 18.6396V24H17.0718Z" fill="white"/>
</svg>
