<svg width="32" height="32" viewBox="0 0 32 32" fill="none" xmlns="http://www.w3.org/2000/svg">
<path d="M24.4878 7.5C22.23 5.25 19.2195 4 16.0418 4C9.43554 4 4.08362 9.33333 4.08362 15.9167C4.08362 18 4.66899 20.0833 5.67247 21.8333L4 28L10.3554 26.3333C12.1115 27.25 14.0348 27.75 16.0418 27.75C22.6481 27.75 28 22.4167 28 15.8333C27.9164 12.75 26.7456 9.75 24.4878 7.5ZM21.8118 20.1667C21.561 20.8333 20.3902 21.5 19.8049 21.5833C19.3031 21.6667 18.6341 21.6667 17.9652 21.5C17.547 21.3333 16.9617 21.1667 16.2927 20.8333C13.2822 19.5833 11.3589 16.5833 11.1916 16.3333C11.0244 16.1667 9.93728 14.75 9.93728 13.25C9.93728 11.75 10.6899 11.0833 10.9408 10.75C11.1916 10.4167 11.5261 10.4167 11.777 10.4167C11.9442 10.4167 12.1951 10.4167 12.3624 10.4167C12.5296 10.4167 12.7805 10.3333 13.0314 10.9167C13.2822 11.5 13.8676 13 13.9512 13.0833C14.0348 13.25 14.0348 13.4167 13.9512 13.5833C13.8676 13.75 13.784 13.9167 13.6167 14.0833C13.4495 14.25 13.2822 14.5 13.1986 14.5833C13.0314 14.75 12.8641 14.9167 13.0314 15.1667C13.1986 15.5 13.784 16.4167 14.7038 17.25C15.8746 18.25 16.7944 18.5833 17.1289 18.75C17.4634 18.9167 17.6307 18.8333 17.7979 18.6667C17.9652 18.5 18.5505 17.8333 18.7178 17.5C18.885 17.1667 19.1359 17.25 19.3868 17.3333C19.6376 17.4167 21.1429 18.1667 21.3937 18.3333C21.7282 18.5 21.8955 18.5833 21.9791 18.6667C22.0627 18.9167 22.0627 19.5 21.8118 20.1667Z" fill="white"/>
</svg>
