<svg width="298" height="85" viewBox="0 0 298 85" fill="none" xmlns="http://www.w3.org/2000/svg">
<path d="M88.6564 42.0947V41.7506H89.055C89.6668 41.7506 90.0469 41.6204 90.1952 41.36C90.3435 41.0996 90.4177 40.6223 90.4177 39.9279V30.3029H85.9774V39.9279C85.9774 40.7401 86.0763 41.2484 86.274 41.453C86.4718 41.6514 86.8426 41.7506 87.3864 41.7506H87.7665V42.0947H81.1941V41.7506H81.5927C82.1427 41.7506 82.5073 41.6452 82.6865 41.4344C82.8657 41.2236 82.9554 40.7215 82.9554 39.9279V31.6421C82.9554 30.8919 82.8719 30.4021 82.7051 30.1727C82.5382 29.9433 82.1674 29.8287 81.5927 29.8287H81.1941V29.4846H95.2195V29.8287H94.8858C94.2925 29.8287 93.9032 29.9464 93.7178 30.182C93.5324 30.4176 93.4397 30.9043 93.4397 31.6421V39.9279C93.4397 40.7401 93.5448 41.2484 93.7549 41.453C93.965 41.6514 94.3543 41.7506 94.9229 41.7506H95.2195V42.0947H88.6564Z" fill="white"/>
<path d="M100.763 30.2099V35.3433H101.013C101.81 35.3433 102.388 35.0922 102.747 34.59C103.105 34.0878 103.334 33.347 103.433 32.3674H103.785V38.9701H103.433C103.359 38.2509 103.201 37.6619 102.96 37.2032C102.725 36.7444 102.45 36.4375 102.135 36.2825C101.82 36.1213 101.362 36.0407 100.763 36.0407V39.5931C100.763 40.2875 100.791 40.7122 100.846 40.8672C100.908 41.0222 101.019 41.1492 101.18 41.2484C101.341 41.3476 101.6 41.3972 101.959 41.3972H102.71C103.884 41.3972 104.823 41.1244 105.528 40.5789C106.238 40.0333 106.748 39.2026 107.057 38.0866H107.4L106.835 42.0947H95.9704V41.7506H96.3875C96.7522 41.7506 97.0457 41.6855 97.2682 41.5553C97.4289 41.4685 97.5525 41.3197 97.639 41.1089C97.707 40.9602 97.741 40.5696 97.741 39.9372V31.6421C97.741 31.0717 97.7255 30.7214 97.6946 30.5912C97.6328 30.3742 97.5185 30.2068 97.3516 30.089C97.1168 29.9154 96.7954 29.8287 96.3875 29.8287H95.9704V29.4846H106.492V33.2137H106.14C105.96 32.3023 105.707 31.6483 105.379 31.2515C105.058 30.8547 104.601 30.5633 104.007 30.3773C103.661 30.2657 103.012 30.2099 102.061 30.2099H100.763Z" fill="white"/>
<path d="M113.379 36.3848V39.8814C113.379 40.5634 113.42 40.9943 113.5 41.174C113.586 41.3476 113.735 41.4871 113.945 41.5925C114.161 41.6979 114.554 41.7506 115.122 41.7506V42.0947H108.735V41.7506C109.316 41.7506 109.708 41.6979 109.912 41.5925C110.123 41.4809 110.268 41.3383 110.348 41.1647C110.435 40.9912 110.478 40.5634 110.478 39.8814V31.6979C110.478 31.0159 110.435 30.5881 110.348 30.4145C110.268 30.2347 110.123 30.0921 109.912 29.9867C109.702 29.8814 109.31 29.8287 108.735 29.8287V29.4846H114.214C116.018 29.4846 117.313 29.807 118.098 30.4517C118.883 31.0965 119.275 31.9024 119.275 32.8696C119.275 33.6879 119.022 34.3885 118.515 34.9713C118.008 35.554 117.31 35.9508 116.42 36.1616C115.82 36.3104 114.807 36.3848 113.379 36.3848ZM113.379 30.2099V35.6594C113.583 35.6718 113.738 35.678 113.843 35.678C114.597 35.678 115.178 35.4549 115.586 35.0085C115.994 34.5559 116.197 33.8584 116.197 32.9161C116.197 31.9799 115.994 31.2949 115.586 30.8609C115.178 30.4269 114.569 30.2099 113.759 30.2099H113.379Z" fill="white"/>
<path d="M128.304 35.4084C129.497 35.6873 130.334 36.0252 130.816 36.422C131.508 36.9862 131.854 37.7177 131.854 38.6167C131.854 39.5652 131.474 40.3495 130.714 40.9695C129.781 41.7196 128.425 42.0947 126.645 42.0947H120.258V41.7506C120.839 41.7506 121.231 41.6979 121.435 41.5925C121.645 41.4809 121.79 41.3383 121.871 41.1647C121.957 40.9912 122 40.5634 122 39.8814V31.6979C122 31.0159 121.957 30.5881 121.871 30.4145C121.79 30.2347 121.645 30.0921 121.435 29.9867C121.225 29.8814 120.832 29.8287 120.258 29.8287V29.4846H126.283C127.723 29.4846 128.743 29.6148 129.342 29.8752C129.942 30.1293 130.414 30.5137 130.761 31.0283C131.107 31.5367 131.28 32.0791 131.28 32.6557C131.28 33.2633 131.06 33.8057 130.622 34.2831C130.183 34.7543 129.41 35.1294 128.304 35.4084ZM124.93 35.1573C125.807 35.1573 126.453 35.0581 126.867 34.8597C127.287 34.6613 127.609 34.3823 127.831 34.0227C128.054 33.6631 128.165 33.2044 128.165 32.6464C128.165 32.0884 128.054 31.6328 127.831 31.2794C127.615 30.9198 127.303 30.647 126.895 30.461C126.487 30.275 125.832 30.1851 124.93 30.1913V35.1573ZM124.93 35.8826V39.9279L124.92 40.3929C124.92 40.7277 125.004 40.9819 125.171 41.1554C125.344 41.3228 125.597 41.4065 125.931 41.4065C126.425 41.4065 126.88 41.298 127.294 41.081C127.714 40.8579 128.035 40.5386 128.258 40.1232C128.48 39.7016 128.591 39.2336 128.591 38.719C128.591 38.13 128.455 37.603 128.184 37.1381C127.912 36.6669 127.538 36.3383 127.062 36.1523C126.586 35.9663 125.875 35.8764 124.93 35.8826Z" fill="white"/>
<path d="M139.215 38.5051H134.774L134.246 39.7326C134.073 40.1418 133.987 40.4797 133.987 40.7463C133.987 41.0996 134.129 41.36 134.413 41.5274C134.58 41.6266 134.991 41.701 135.646 41.7506V42.0947H131.465V41.7506C131.916 41.6824 132.287 41.4964 132.577 41.1926C132.868 40.8827 133.226 40.2472 133.653 39.2862L138.149 29.2242H138.325L142.858 39.5652C143.29 40.5448 143.646 41.1616 143.924 41.4158C144.134 41.608 144.431 41.7196 144.814 41.7506V42.0947H138.733V41.7506H138.983C139.471 41.7506 139.814 41.6824 140.012 41.546C140.148 41.4468 140.216 41.3042 140.216 41.1182C140.216 41.0067 140.197 40.892 140.16 40.7742C140.148 40.7184 140.055 40.4859 139.882 40.0767L139.215 38.5051ZM138.9 37.8169L137.027 33.4741L135.099 37.8169H138.9Z" fill="white"/>
<path d="M153.648 36.3476H152.823L148.772 42.0947H144.814V41.7506C145.148 41.732 145.441 41.6266 145.694 41.4344C145.861 41.298 146.143 40.954 146.538 40.4022L149.56 36.1337C148.794 35.9415 148.197 35.6532 147.771 35.2689C147.104 34.6613 146.77 33.8925 146.77 32.9626C146.77 32.2 146.992 31.5367 147.437 30.9725C147.882 30.4021 148.457 30.0115 149.161 29.8008C149.866 29.59 150.978 29.4846 152.499 29.4846H158.339V29.8287C157.764 29.8287 157.372 29.8814 157.161 29.9867C156.951 30.0921 156.803 30.2347 156.716 30.4145C156.636 30.5881 156.596 31.0159 156.596 31.6979V39.8814C156.596 40.5634 156.636 40.9912 156.716 41.1647C156.803 41.3383 156.948 41.4809 157.152 41.5925C157.362 41.6979 157.758 41.7506 158.339 41.7506V42.0947H151.905V41.7506C152.48 41.7506 152.873 41.6979 153.083 41.5925C153.293 41.4871 153.438 41.3476 153.518 41.174C153.605 40.9943 153.648 40.5634 153.648 39.8814V36.3476ZM153.648 30.1634H152.656C151.661 30.1634 150.938 30.3928 150.487 30.8516C150.042 31.3104 149.82 32.0202 149.82 32.9812C149.82 33.6445 149.94 34.1839 150.181 34.5993C150.428 35.0085 150.765 35.2937 151.192 35.4549C151.618 35.6098 152.261 35.6873 153.12 35.6873H153.648V30.1634Z" fill="white"/>
<path d="M163.882 29.4846H174.969V32.9068H174.626C174.478 32.0636 174.286 31.4685 174.051 31.1213C173.823 30.7741 173.541 30.5509 173.208 30.4517C172.874 30.3525 172.213 30.3029 171.224 30.3029H168.665V40.1046C168.665 40.8114 168.767 41.2639 168.971 41.4623C169.181 41.6545 169.562 41.7506 170.112 41.7506H170.436V42.0947H163.882V41.7506H164.234C164.778 41.7506 165.149 41.6483 165.347 41.4437C165.545 41.2329 165.643 40.7866 165.643 40.1046V31.4003C165.643 30.8299 165.56 30.4269 165.393 30.1913C165.232 29.9495 164.862 29.8287 164.281 29.8287H163.882V29.4846Z" fill="white"/>
<path d="M182.441 29.3079C184.443 29.2335 186.068 29.8194 187.317 31.0655C188.571 32.3116 189.198 33.8708 189.198 35.7431C189.198 37.3426 188.732 38.75 187.799 39.9651C186.563 41.577 184.817 42.383 182.561 42.383C180.299 42.383 178.55 41.6142 177.314 40.0767C176.338 38.8616 175.85 37.4201 175.85 35.7524C175.85 33.8801 176.483 32.3209 177.75 31.0748C179.023 29.8225 180.587 29.2335 182.441 29.3079ZM182.552 29.9031C181.402 29.9031 180.528 30.492 179.928 31.67C179.44 32.6371 179.196 34.0258 179.196 35.8361C179.196 37.9874 179.573 39.5776 180.327 40.6068C180.852 41.3259 181.588 41.6855 182.533 41.6855C183.17 41.6855 183.701 41.5305 184.128 41.2205C184.672 40.8238 185.095 40.1914 185.398 39.3234C185.701 38.4493 185.852 37.3117 185.852 35.9105C185.852 34.2428 185.697 32.9967 185.388 32.1721C185.079 31.3414 184.684 30.7555 184.202 30.4145C183.726 30.0735 183.176 29.9031 182.552 29.9031Z" fill="white"/>
<path d="M195.011 36.3848V39.8814C195.011 40.5634 195.051 40.9943 195.131 41.174C195.218 41.3476 195.366 41.4871 195.576 41.5925C195.792 41.6979 196.185 41.7506 196.753 41.7506V42.0947H190.366V41.7506C190.947 41.7506 191.34 41.6979 191.544 41.5925C191.754 41.4809 191.899 41.3383 191.979 41.1647C192.066 40.9912 192.109 40.5634 192.109 39.8814V31.6979C192.109 31.0159 192.066 30.5881 191.979 30.4145C191.899 30.2347 191.754 30.0921 191.544 29.9867C191.334 29.8814 190.941 29.8287 190.366 29.8287V29.4846H195.845C197.65 29.4846 198.944 29.807 199.729 30.4517C200.514 31.0965 200.906 31.9024 200.906 32.8696C200.906 33.6879 200.653 34.3885 200.146 34.9713C199.64 35.554 198.941 35.9508 198.051 36.1616C197.452 36.3104 196.438 36.3848 195.011 36.3848ZM195.011 30.2099V35.6594C195.215 35.6718 195.369 35.678 195.474 35.678C196.228 35.678 196.809 35.4549 197.217 35.0085C197.625 34.5559 197.829 33.8584 197.829 32.9161C197.829 31.9799 197.625 31.2949 197.217 30.8609C196.809 30.4269 196.2 30.2099 195.391 30.2099H195.011Z" fill="white"/>
<path d="M208.712 29.3079C210.714 29.2335 212.339 29.8194 213.588 31.0655C214.842 32.3116 215.469 33.8708 215.469 35.7431C215.469 37.3426 215.003 38.75 214.07 39.9651C212.834 41.577 211.088 42.383 208.832 42.383C206.57 42.383 204.821 41.6142 203.585 40.0767C202.609 38.8616 202.121 37.4201 202.121 35.7524C202.121 33.8801 202.754 32.3209 204.021 31.0748C205.294 29.8225 206.858 29.2335 208.712 29.3079ZM208.823 29.9031C207.673 29.9031 206.799 30.492 206.2 31.67C205.711 32.6371 205.467 34.0258 205.467 35.8361C205.467 37.9874 205.844 39.5776 206.598 40.6068C207.123 41.3259 207.859 41.6855 208.804 41.6855C209.441 41.6855 209.972 41.5305 210.399 41.2205C210.943 40.8238 211.366 40.1914 211.669 39.3234C211.972 38.4493 212.123 37.3117 212.123 35.9105C212.123 34.2428 211.969 32.9967 211.66 32.1721C211.351 31.3414 210.955 30.7555 210.473 30.4145C209.997 30.0735 209.447 29.9031 208.823 29.9031Z" fill="white"/>
<path d="M217.527 29.4846H227.919V29.8287C227.147 29.8535 226.655 29.9681 226.445 30.1727C226.235 30.3773 226.13 30.8175 226.13 31.4933V39.9186C226.13 40.4518 226.17 40.8238 226.25 41.0345C226.331 41.2453 226.507 41.4189 226.779 41.5553C227.057 41.6855 227.437 41.7506 227.919 41.7506V45.7773H227.576C227.502 44.6862 227.106 43.7996 226.39 43.1176C225.673 42.4357 224.69 42.0947 223.442 42.0947H220.021C218.729 42.0947 217.691 42.4109 216.906 43.0432C216.128 43.6818 215.677 44.5932 215.553 45.7773H215.21V41.7506C216.736 41.4468 217.827 40.4146 218.482 38.6539C219.144 36.887 219.474 34.5249 219.474 31.5677C219.474 30.8547 219.351 30.3897 219.103 30.1727C218.862 29.9495 218.337 29.8349 217.527 29.8287V29.4846ZM223.442 30.3029H220.281V31.3817C220.281 32.8944 220.179 34.3699 219.975 35.8082C219.771 37.2466 219.493 38.378 219.14 39.2026C218.788 40.0209 218.318 40.7122 217.731 41.2763H222.209C222.814 41.2763 223.17 41.236 223.275 41.1554C223.386 41.0686 223.442 40.7959 223.442 40.3371V30.3029Z" fill="white"/>
<path d="M240.953 29.1963V33.5671H240.591C240.319 32.4263 239.812 31.5522 239.071 30.9446C238.329 30.337 237.489 30.0332 236.549 30.0332C235.765 30.0332 235.045 30.2595 234.389 30.7121C233.734 31.1647 233.255 31.7568 232.953 32.4883C232.563 33.4245 232.369 34.466 232.369 35.6129C232.369 36.7413 232.511 37.7704 232.795 38.7004C233.079 39.6241 233.524 40.3247 234.13 40.8021C234.736 41.2732 235.52 41.5088 236.485 41.5088C237.276 41.5088 237.999 41.3352 238.654 40.9881C239.315 40.6409 240.01 40.0426 240.739 39.1933V40.2813C240.035 41.0191 239.299 41.5553 238.533 41.8901C237.773 42.2187 236.883 42.383 235.863 42.383C234.522 42.383 233.33 42.1133 232.285 41.5739C231.247 41.0346 230.444 40.2596 229.875 39.249C229.313 38.2385 229.031 37.1629 229.031 36.0221C229.031 34.8194 229.344 33.6786 229.968 32.5999C230.598 31.5212 231.445 30.6842 232.508 30.089C233.577 29.4939 234.711 29.1963 235.91 29.1963C236.794 29.1963 237.727 29.3885 238.709 29.7729C239.278 29.996 239.639 30.1076 239.794 30.1076C239.992 30.1076 240.162 30.0363 240.304 29.8938C240.452 29.745 240.548 29.5125 240.591 29.1963H240.953Z" fill="white"/>
<path d="M242.389 29.4846H248.934V29.8287H248.721C248.103 29.8287 247.689 29.9433 247.479 30.1727C247.275 30.3959 247.173 30.8237 247.173 31.4561V35.2224C248.038 35.2224 248.6 35.1945 248.86 35.1387C249.119 35.0767 249.361 34.9062 249.583 34.6272C249.805 34.342 250.019 33.7964 250.223 32.9905C250.464 32.0481 250.695 31.3414 250.918 30.8702C251.146 30.399 251.459 30.027 251.854 29.7543C252.256 29.4753 252.756 29.3358 253.356 29.3358C253.949 29.3358 254.425 29.5063 254.783 29.8473C255.142 30.182 255.321 30.5974 255.321 31.0934C255.321 31.4778 255.201 31.7815 254.96 32.0047C254.719 32.2279 254.419 32.3395 254.06 32.3395C253.356 32.3395 252.976 31.9303 252.92 31.112C252.895 30.7028 252.753 30.4982 252.494 30.4982C252.216 30.4982 251.978 30.6563 251.78 30.9725C251.582 31.2887 251.369 31.8559 251.14 32.6743C250.918 33.4741 250.726 34.0754 250.566 34.4784C250.405 34.8752 250.176 35.21 249.88 35.4828C250.275 35.5819 250.578 35.7121 250.788 35.8733C251.004 36.0345 251.199 36.2453 251.372 36.5057C251.545 36.7599 251.916 37.4108 252.484 38.4586L253.764 40.7463C253.961 41.0872 254.196 41.3414 254.468 41.5088C254.746 41.67 255.08 41.7506 255.469 41.7506V42.0947H251.261L248.675 37.259C248.378 36.7134 248.158 36.3848 248.016 36.2732C247.88 36.1554 247.599 36.0872 247.173 36.0686V40.3371C247.173 40.9447 247.296 41.3321 247.544 41.4995C247.797 41.6669 248.26 41.7506 248.934 41.7506V42.0947H242.389V41.7506C243.113 41.7382 243.585 41.6328 243.808 41.4344C244.036 41.2298 244.151 40.7959 244.151 40.1325V31.6979C244.151 30.9601 244.061 30.4641 243.882 30.2099C243.703 29.9557 243.295 29.8287 242.658 29.8287H242.389V29.4846Z" fill="white"/>
<path d="M263.673 38.5051H259.233L258.705 39.7326C258.532 40.1418 258.445 40.4797 258.445 40.7463C258.445 41.0996 258.587 41.36 258.871 41.5274C259.038 41.6266 259.449 41.701 260.104 41.7506V42.0947H255.924V41.7506C256.375 41.6824 256.746 41.4964 257.036 41.1926C257.326 40.8827 257.685 40.2472 258.111 39.2862L262.607 29.2242H262.783L267.316 39.5652C267.749 40.5448 268.104 41.1616 268.382 41.4158C268.593 41.608 268.889 41.7196 269.272 41.7506V42.0947H263.191V41.7506H263.442C263.93 41.7506 264.273 41.6824 264.471 41.546C264.606 41.4468 264.674 41.3042 264.674 41.1182C264.674 41.0067 264.656 40.892 264.619 40.7742C264.606 40.7184 264.514 40.4859 264.341 40.0767L263.673 38.5051ZM263.358 37.8169L261.486 33.4741L259.557 37.8169H263.358Z" fill="white"/>
<path d="M278.107 36.3476H277.282L273.231 42.0947H269.272V41.7506C269.606 41.732 269.9 41.6266 270.153 41.4344C270.32 41.298 270.601 40.954 270.997 40.4022L274.019 36.1337C273.252 35.9415 272.656 35.6532 272.229 35.2689C271.562 34.6613 271.228 33.8925 271.228 32.9626C271.228 32.2 271.451 31.5367 271.896 30.9725C272.341 30.4021 272.915 30.0115 273.62 29.8008C274.324 29.59 275.437 29.4846 276.957 29.4846H282.797V29.8287C282.223 29.8287 281.83 29.8814 281.62 29.9867C281.41 30.0921 281.262 30.2347 281.175 30.4145C281.095 30.5881 281.055 31.0159 281.055 31.6979V39.8814C281.055 40.5634 281.095 40.9912 281.175 41.1647C281.262 41.3383 281.407 41.4809 281.611 41.5925C281.821 41.6979 282.216 41.7506 282.797 41.7506V42.0947H276.364V41.7506C276.939 41.7506 277.331 41.6979 277.541 41.5925C277.751 41.4871 277.897 41.3476 277.977 41.174C278.063 40.9943 278.107 40.5634 278.107 39.8814V36.3476ZM278.107 30.1634H277.115C276.12 30.1634 275.397 30.3928 274.946 30.8516C274.501 31.3104 274.278 32.0202 274.278 32.9812C274.278 33.6445 274.399 34.1839 274.64 34.5993C274.887 35.0085 275.224 35.2937 275.65 35.4549C276.077 35.6098 276.719 35.6873 277.578 35.6873H278.107V30.1634Z" fill="white"/>
<path d="M65.7503 54.5898H72.2949V54.9339H72.0817C71.4637 54.9339 71.0496 55.0486 70.8395 55.278C70.6356 55.5012 70.5336 55.929 70.5336 56.5613V60.3276C71.3988 60.3276 71.9612 60.2997 72.2207 60.2439C72.4803 60.1819 72.7213 60.0114 72.9438 59.7325C73.1663 59.4473 73.3795 58.9017 73.5834 58.0958C73.8244 57.1534 74.0562 56.4466 74.2787 55.9755C74.5073 55.5043 74.8194 55.1323 75.2149 54.8595C75.6166 54.5805 76.1172 54.441 76.7167 54.441C77.31 54.441 77.7858 54.6115 78.1443 54.9525C78.5027 55.2873 78.6819 55.7027 78.6819 56.1987C78.6819 56.583 78.5614 56.8868 78.3204 57.11C78.0794 57.3332 77.7796 57.4448 77.4212 57.4448C76.7167 57.4448 76.3366 57.0356 76.281 56.2173C76.2563 55.8081 76.1141 55.6035 75.8546 55.6035C75.5765 55.6035 75.3385 55.7616 75.1408 56.0778C74.943 56.3939 74.7298 56.9612 74.5012 57.7796C74.2787 58.5793 74.0871 59.1807 73.9264 59.5837C73.7657 59.9804 73.5371 60.3152 73.2404 60.588C73.636 60.6872 73.9388 60.8174 74.1489 60.9786C74.3652 61.1398 74.5599 61.3506 74.7329 61.611C74.9059 61.8651 75.2767 62.5161 75.8453 63.5639L77.1246 65.8515C77.3223 66.1925 77.5572 66.4467 77.8291 66.6141C78.1072 66.7753 78.4409 66.8559 78.8302 66.8559V67.2H74.6217L72.0353 62.3642C71.7387 61.8186 71.5193 61.4901 71.3772 61.3785C71.2412 61.2607 70.96 61.1925 70.5336 61.1739V65.4424C70.5336 66.0499 70.6572 66.4374 70.9044 66.6048C71.1578 66.7722 71.6213 66.8559 72.2949 66.8559V67.2H65.7503V66.8559C66.4734 66.8435 66.9461 66.7381 67.1686 66.5397C67.3973 66.3351 67.5116 65.9011 67.5116 65.2378V56.8031C67.5116 56.0654 67.422 55.5694 67.2428 55.3152C67.0636 55.061 66.6557 54.9339 66.0191 54.9339H65.7503V54.5898Z" fill="white"/>
<path d="M85.9866 54.4131C87.989 54.3388 89.6143 54.9246 90.8626 56.1708C92.1172 57.4169 92.7444 58.9761 92.7444 60.8484C92.7444 62.4479 92.2779 63.8552 91.3447 65.0704C90.1087 66.6823 88.3628 67.4882 86.1071 67.4882C83.8453 67.4882 82.0963 66.7195 80.8604 65.182C79.8839 63.9668 79.3957 62.5254 79.3957 60.8577C79.3957 58.9854 80.0291 57.4262 81.296 56.1801C82.5691 54.9277 84.1326 54.3388 85.9866 54.4131ZM86.0979 55.0083C84.9484 55.0083 84.0739 55.5973 83.4745 56.7752C82.9863 57.7424 82.7421 59.1311 82.7421 60.9414C82.7421 63.0927 83.1191 64.6829 83.8731 65.712C84.3984 66.4312 85.1338 66.7908 86.0793 66.7908C86.7159 66.7908 87.2474 66.6358 87.6738 66.3258C88.2176 65.929 88.6409 65.2967 88.9438 64.4287C89.2466 63.5546 89.398 62.4169 89.398 61.0158C89.398 59.3481 89.2435 58.1019 88.9345 57.2774C88.6255 56.4466 88.23 55.8608 87.7479 55.5198C87.2721 55.1788 86.7221 55.0083 86.0979 55.0083Z" fill="white"/>
<path d="M106.093 54.9339C105.413 54.9339 104.975 55.0424 104.777 55.2594C104.579 55.4764 104.48 55.8794 104.48 56.4683V65.2378C104.48 65.9073 104.579 66.3413 104.777 66.5397C104.975 66.7381 105.429 66.8435 106.14 66.8559V67.2H99.7989V66.8559C100.306 66.8559 100.661 66.8156 100.865 66.735C101.075 66.6482 101.226 66.5087 101.319 66.3165C101.412 66.1243 101.458 65.7833 101.458 65.2936V55.4082H98.4362V59.1745C98.4362 60.7492 98.396 61.9488 98.3157 62.7734C98.2415 63.598 98.0283 64.3822 97.6761 65.1262C97.33 65.8639 96.8819 66.4188 96.3319 66.7908C95.7819 67.1628 95.1732 67.3488 94.5057 67.3488C93.9001 67.3488 93.4304 67.1907 93.0967 66.8745C92.763 66.5521 92.5961 66.1553 92.5961 65.6841C92.5961 65.2936 92.6981 64.9743 92.902 64.7263C93.106 64.4721 93.3995 64.345 93.7827 64.345C94.4934 64.345 94.8858 64.7883 94.96 65.6748C94.9909 66.0716 95.1454 66.27 95.4235 66.27C95.8128 66.27 96.2269 66.0096 96.6656 65.4888C97.1044 64.9619 97.3949 64.2396 97.537 63.3221C97.6792 62.4045 97.7502 61.0747 97.7502 59.3326V56.9519C97.7502 56.2761 97.707 55.8267 97.6204 55.6035C97.5401 55.3741 97.3794 55.2098 97.1384 55.1106C96.9036 55.0052 96.4802 54.9463 95.8684 54.9339V54.5898H106.093V54.9339Z" fill="white"/>
<path d="M120.239 54.9339C119.559 54.9339 119.121 55.0424 118.923 55.2594C118.725 55.4764 118.626 55.8794 118.626 56.4683V65.2378C118.626 65.9073 118.725 66.3413 118.923 66.5397C119.121 66.7381 119.575 66.8435 120.286 66.8559V67.2H113.945V66.8559C114.452 66.8559 114.807 66.8156 115.011 66.735C115.221 66.6482 115.372 66.5087 115.465 66.3165C115.558 66.1243 115.604 65.7833 115.604 65.2936V55.4082H112.582V59.1745C112.582 60.7492 112.542 61.9488 112.462 62.7734C112.388 63.598 112.174 64.3822 111.822 65.1262C111.476 65.8639 111.028 66.4188 110.478 66.7908C109.928 67.1628 109.319 67.3488 108.652 67.3488C108.046 67.3488 107.576 67.1907 107.243 66.8745C106.909 66.5521 106.742 66.1553 106.742 65.6841C106.742 65.2936 106.844 64.9743 107.048 64.7263C107.252 64.4721 107.545 64.345 107.929 64.345C108.639 64.345 109.032 64.7883 109.106 65.6748C109.137 66.0716 109.291 66.27 109.569 66.27C109.959 66.27 110.373 66.0096 110.812 65.4888C111.25 64.9619 111.541 64.2396 111.683 63.3221C111.825 62.4045 111.896 61.0747 111.896 59.3326V56.9519C111.896 56.2761 111.853 55.8267 111.766 55.6035C111.686 55.3741 111.525 55.2098 111.284 55.1106C111.05 55.0052 110.626 54.9463 110.014 54.9339V54.5898H120.239V54.9339Z" fill="white"/>
<path d="M125.949 55.3152V60.4485H126.2C126.997 60.4485 127.575 60.1974 127.933 59.6953C128.292 59.1931 128.52 58.4522 128.619 57.4727H128.971V64.0753H128.619C128.545 63.3562 128.387 62.7672 128.146 62.3084C127.912 61.8496 127.637 61.5428 127.321 61.3878C127.006 61.2266 126.549 61.146 125.949 61.146V64.6984C125.949 65.3928 125.977 65.8174 126.033 65.9724C126.095 66.1274 126.206 66.2545 126.367 66.3537C126.527 66.4529 126.787 66.5025 127.145 66.5025H127.896C129.07 66.5025 130.01 66.2297 130.714 65.6841C131.425 65.1386 131.935 64.3078 132.244 63.1919H132.587L132.021 67.2H121.157V66.8559H121.574C121.939 66.8559 122.232 66.7908 122.455 66.6606C122.615 66.5738 122.739 66.425 122.825 66.2142C122.893 66.0654 122.927 65.6748 122.927 65.0425V56.7473C122.927 56.177 122.912 55.8267 122.881 55.6965C122.819 55.4795 122.705 55.3121 122.538 55.1943C122.303 55.0207 121.982 54.9339 121.574 54.9339H121.157V54.5898H131.678V58.3189H131.326C131.147 57.4076 130.893 56.7535 130.566 56.3567C130.245 55.96 129.787 55.6686 129.194 55.4826C128.848 55.371 128.199 55.3152 127.247 55.3152H125.949Z" fill="white"/>
<path d="M133.82 54.5898H144.907V58.0121H144.564C144.415 57.1689 144.224 56.5737 143.989 56.2266C143.76 55.8794 143.479 55.6562 143.145 55.557C142.812 55.4578 142.15 55.4082 141.161 55.4082H138.603V65.2099C138.603 65.9166 138.705 66.3692 138.909 66.5676C139.119 66.7598 139.499 66.8559 140.049 66.8559H140.374V67.2H133.82V66.8559H134.172C134.716 66.8559 135.087 66.7536 135.284 66.549C135.482 66.3382 135.581 65.8918 135.581 65.2099V56.5055C135.581 55.9352 135.498 55.5322 135.331 55.2966C135.17 55.0548 134.799 54.9339 134.218 54.9339H133.82V54.5898Z" fill="white"/>
<path d="M155.131 56.6729C155.125 55.991 155.042 55.5322 154.881 55.2966C154.727 55.0548 154.334 54.9339 153.704 54.9339H153.287V54.5898H160.026V54.9339H159.59C159.009 54.9339 158.623 55.0455 158.431 55.2687C158.246 55.4919 158.153 55.9817 158.153 56.738V65.0332C158.153 65.8081 158.249 66.3072 158.441 66.5304C158.632 66.7474 159.015 66.8559 159.59 66.8559H160.026V67.2H153.287V66.8559H153.704C154.291 66.8559 154.674 66.7412 154.853 66.5118C155.039 66.2762 155.131 65.7833 155.131 65.0332V58.1887L150.7 65.1634C150.7 65.7647 150.774 66.1987 150.923 66.4653C151.071 66.7257 151.473 66.8559 152.128 66.8559H152.564V67.2H145.824V66.8559H146.241C146.828 66.8559 147.215 66.7412 147.4 66.5118C147.586 66.2762 147.678 65.7833 147.678 65.0332V56.738C147.678 55.9817 147.604 55.4919 147.456 55.2687C147.307 55.0455 146.903 54.9339 146.241 54.9339H145.824V54.5898H152.564V54.9339H152.128C151.559 54.9339 151.179 55.0579 150.988 55.3059C150.796 55.5477 150.7 56.0251 150.7 56.738V63.6476L155.131 56.6729Z" fill="white"/>
<path d="M168.916 61.4529H168.091L164.04 67.2H160.081V66.8559C160.415 66.8373 160.709 66.7319 160.962 66.5397C161.129 66.4033 161.41 66.0592 161.806 65.5075L164.828 61.239C164.061 61.0468 163.465 60.7585 163.039 60.3741C162.371 59.7666 162.037 58.9978 162.037 58.0679C162.037 57.3053 162.26 56.6419 162.705 56.0778C163.15 55.5074 163.725 55.1168 164.429 54.906C165.134 54.6952 166.246 54.5898 167.766 54.5898H173.606V54.9339C173.032 54.9339 172.639 54.9866 172.429 55.092C172.219 55.1974 172.071 55.34 171.984 55.5198C171.904 55.6934 171.864 56.1212 171.864 56.8031V64.9867C171.864 65.6686 171.904 66.0964 171.984 66.27C172.071 66.4436 172.216 66.5862 172.42 66.6978C172.63 66.8032 173.025 66.8559 173.606 66.8559V67.2H167.173V66.8559C167.748 66.8559 168.14 66.8032 168.35 66.6978C168.56 66.5924 168.706 66.4529 168.786 66.2793C168.872 66.0995 168.916 65.6686 168.916 64.9867V61.4529ZM168.916 55.2687H167.924C166.929 55.2687 166.206 55.4981 165.755 55.9569C165.31 56.4156 165.087 57.1255 165.087 58.0865C165.087 58.7498 165.208 59.2892 165.449 59.7046C165.696 60.1137 166.033 60.3989 166.459 60.5601C166.886 60.7151 167.528 60.7926 168.387 60.7926H168.916V55.2687Z" fill="white"/>
<path d="M186.668 63.6104H182.227L181.699 64.8379C181.526 65.2471 181.439 65.5849 181.439 65.8515C181.439 66.2049 181.582 66.4653 181.866 66.6327C182.033 66.7319 182.444 66.8063 183.099 66.8559V67.2H178.918V66.8559C179.369 66.7877 179.74 66.6017 180.03 66.2979C180.321 65.9879 180.679 65.3525 181.106 64.3915L185.602 54.3295H185.778L190.311 64.6705C190.743 65.65 191.099 66.2669 191.377 66.5211C191.587 66.7133 191.884 66.8249 192.267 66.8559V67.2H186.186V66.8559H186.436C186.924 66.8559 187.267 66.7877 187.465 66.6513C187.601 66.5521 187.669 66.4095 187.669 66.2235C187.669 66.1119 187.65 65.9972 187.613 65.8794C187.601 65.8236 187.508 65.5911 187.335 65.182L186.668 63.6104ZM186.353 62.9222L184.48 58.5793L182.552 62.9222H186.353Z" fill="white"/>
<path d="M194.807 54.5898H205.198V54.9339C204.426 54.9587 203.935 55.0734 203.724 55.278C203.514 55.4826 203.409 55.9228 203.409 56.5985V65.0239C203.409 65.557 203.449 65.929 203.53 66.1398C203.61 66.3506 203.786 66.5242 204.058 66.6606C204.336 66.7908 204.716 66.8559 205.198 66.8559V70.8826H204.855C204.781 69.7914 204.386 68.9049 203.669 68.2229C202.952 67.5409 201.969 67.2 200.721 67.2H197.3C196.009 67.2 194.971 67.5161 194.186 68.1485C193.407 68.7871 192.956 69.6984 192.832 70.8826H192.489V66.8559C194.016 66.5521 195.106 65.5198 195.762 63.7591C196.423 61.9922 196.753 59.6302 196.753 56.6729C196.753 55.96 196.63 55.495 196.383 55.278C196.142 55.0548 195.616 54.9401 194.807 54.9339V54.5898ZM200.721 55.4082H197.56V56.4869C197.56 57.9997 197.458 59.4752 197.254 60.9135C197.05 62.3518 196.772 63.4833 196.42 64.3078C196.067 65.1262 195.598 65.8174 195.011 66.3816H199.488C200.094 66.3816 200.449 66.3413 200.554 66.2607C200.665 66.1739 200.721 65.9011 200.721 65.4424V55.4082Z" fill="white"/>
<path d="M214.005 60.5136C215.198 60.7926 216.035 61.1305 216.517 61.5273C217.209 62.0914 217.555 62.823 217.555 63.7219C217.555 64.6705 217.175 65.4548 216.415 66.0747C215.482 66.8249 214.125 67.2 212.346 67.2H205.959V66.8559C206.539 66.8559 206.932 66.8032 207.136 66.6978C207.346 66.5862 207.491 66.4436 207.571 66.27C207.658 66.0964 207.701 65.6686 207.701 64.9867V56.8031C207.701 56.1212 207.658 55.6934 207.571 55.5198C207.491 55.34 207.346 55.1974 207.136 55.092C206.926 54.9866 206.533 54.9339 205.959 54.9339V54.5898H211.984C213.424 54.5898 214.444 54.72 215.043 54.9804C215.643 55.2346 216.115 55.619 216.461 56.1336C216.807 56.6419 216.981 57.1844 216.981 57.761C216.981 58.3685 216.761 58.911 216.322 59.3884C215.884 59.8596 215.111 60.2346 214.005 60.5136ZM210.631 60.2625C211.508 60.2625 212.154 60.1633 212.568 59.9649C212.988 59.7666 213.31 59.4876 213.532 59.128C213.755 58.7684 213.866 58.3096 213.866 57.7517C213.866 57.1937 213.755 56.738 213.532 56.3846C213.316 56.0251 213.004 55.7523 212.596 55.5663C212.188 55.3803 211.533 55.2904 210.631 55.2966V60.2625ZM210.631 60.9879V65.0332L210.621 65.4981C210.621 65.8329 210.705 66.0871 210.872 66.2607C211.045 66.4281 211.298 66.5118 211.632 66.5118C212.126 66.5118 212.58 66.4033 212.994 66.1863C213.415 65.9631 213.736 65.6438 213.958 65.2285C214.181 64.8069 214.292 64.3388 214.292 63.8242C214.292 63.2353 214.156 62.7083 213.884 62.2433C213.612 61.7722 213.239 61.4436 212.763 61.2576C212.287 61.0716 211.576 60.9817 210.631 60.9879Z" fill="white"/>
<path d="M225.555 54.4131C227.558 54.3388 229.183 54.9246 230.431 56.1708C231.686 57.4169 232.313 58.9761 232.313 60.8484C232.313 62.4479 231.846 63.8552 230.913 65.0704C229.677 66.6823 227.931 67.4882 225.676 67.4882C223.414 67.4882 221.665 66.7195 220.429 65.182C219.453 63.9668 218.964 62.5254 218.964 60.8577C218.964 58.9854 219.598 57.4262 220.865 56.1801C222.138 54.9277 223.701 54.3388 225.555 54.4131ZM225.666 55.0083C224.517 55.0083 223.643 55.5973 223.043 56.7752C222.555 57.7424 222.311 59.1311 222.311 60.9414C222.311 63.0927 222.688 64.6829 223.442 65.712C223.967 66.4312 224.702 66.7908 225.648 66.7908C226.284 66.7908 226.816 66.6358 227.242 66.3258C227.786 65.929 228.21 65.2967 228.512 64.4287C228.815 63.5546 228.967 62.4169 228.967 61.0158C228.967 59.3481 228.812 58.1019 228.503 57.2774C228.194 56.4466 227.799 55.8608 227.317 55.5198C226.841 55.1788 226.291 55.0083 225.666 55.0083Z" fill="white"/>
<path d="M233.388 54.5898H239.933V54.9339H239.72C239.102 54.9339 238.688 55.0486 238.478 55.278C238.274 55.5012 238.172 55.929 238.172 56.5613V60.3276C239.037 60.3276 239.599 60.2997 239.859 60.2439C240.118 60.1819 240.359 60.0114 240.582 59.7325C240.804 59.4473 241.018 58.9017 241.221 58.0958C241.462 57.1534 241.694 56.4466 241.917 55.9755C242.145 55.5043 242.457 55.1323 242.853 54.8595C243.255 54.5805 243.755 54.441 244.355 54.441C244.948 54.441 245.424 54.6115 245.782 54.9525C246.141 55.2873 246.32 55.7027 246.32 56.1987C246.32 56.583 246.199 56.8868 245.958 57.11C245.717 57.3332 245.418 57.4448 245.059 57.4448C244.355 57.4448 243.975 57.0356 243.919 56.2173C243.894 55.8081 243.752 55.6035 243.493 55.6035C243.215 55.6035 242.977 55.7616 242.779 56.0778C242.581 56.3939 242.368 56.9612 242.139 57.7796C241.917 58.5793 241.725 59.1807 241.564 59.5837C241.404 59.9804 241.175 60.3152 240.878 60.588C241.274 60.6872 241.577 60.8174 241.787 60.9786C242.003 61.1398 242.198 61.3506 242.371 61.611C242.544 61.8651 242.915 62.5161 243.483 63.5639L244.763 65.8515C244.96 66.1925 245.195 66.4467 245.467 66.6141C245.745 66.7753 246.079 66.8559 246.468 66.8559V67.2H242.26L239.673 62.3642C239.377 61.8186 239.157 61.4901 239.015 61.3785C238.879 61.2607 238.598 61.1925 238.172 61.1739V65.4424C238.172 66.0499 238.295 66.4374 238.542 66.6048C238.796 66.7722 239.259 66.8559 239.933 66.8559V67.2H233.388V66.8559C234.111 66.8435 234.584 66.7381 234.807 66.5397C235.035 66.3351 235.15 65.9011 235.15 65.2378V56.8031C235.15 56.0654 235.06 55.5694 234.881 55.3152C234.702 55.061 234.294 54.9339 233.657 54.9339H233.388V54.5898Z" fill="white"/>
<path d="M254.672 63.6104H250.232L249.703 64.8379C249.53 65.2471 249.444 65.5849 249.444 65.8515C249.444 66.2049 249.586 66.4653 249.87 66.6327C250.037 66.7319 250.448 66.8063 251.103 66.8559V67.2H246.923V66.8559C247.374 66.7877 247.744 66.6017 248.035 66.2979C248.325 65.9879 248.684 65.3525 249.11 64.3915L253.606 54.3295H253.782L258.315 64.6705C258.748 65.65 259.103 66.2669 259.381 66.5211C259.591 66.7133 259.888 66.8249 260.271 66.8559V67.2H254.19V66.8559H254.44C254.929 66.8559 255.272 66.7877 255.469 66.6513C255.605 66.5521 255.673 66.4095 255.673 66.2235C255.673 66.1119 255.655 65.9972 255.618 65.8794C255.605 65.8236 255.513 65.5911 255.34 65.182L254.672 63.6104ZM254.357 62.9222L252.484 58.5793L250.556 62.9222H254.357Z" fill="white"/>
<path d="M270.802 54.5898V58.0028H270.468C270.27 57.2154 270.051 56.6512 269.81 56.3102C269.569 55.9631 269.238 55.6872 268.818 55.4826C268.583 55.371 268.172 55.3152 267.585 55.3152H266.649V65.0425C266.649 65.6872 266.683 66.0902 266.751 66.2514C266.825 66.4126 266.964 66.5552 267.168 66.6792C267.378 66.797 267.662 66.8559 268.021 66.8559H268.438V67.2H261.856V66.8559H262.274C262.638 66.8559 262.932 66.7908 263.154 66.6606C263.315 66.5738 263.442 66.425 263.534 66.2142C263.602 66.0654 263.636 65.6748 263.636 65.0425V55.3152H262.728C261.881 55.3152 261.266 55.495 260.883 55.8546C260.345 56.3567 260.005 57.0728 259.863 58.0028H259.511V54.5898H270.802Z" fill="white"/>
<path d="M278.561 54.4131C280.563 54.3388 282.189 54.9246 283.437 56.1708C284.691 57.4169 285.319 58.9761 285.319 60.8484C285.319 62.4479 284.852 63.8552 283.919 65.0704C282.683 66.6823 280.937 67.4882 278.681 67.4882C276.42 67.4882 274.671 66.7195 273.435 65.182C272.458 63.9668 271.97 62.5254 271.97 60.8577C271.97 58.9854 272.603 57.4262 273.87 56.1801C275.143 54.9277 276.707 54.3388 278.561 54.4131ZM278.672 55.0083C277.523 55.0083 276.648 55.5973 276.049 56.7752C275.56 57.7424 275.316 59.1311 275.316 60.9414C275.316 63.0927 275.693 64.6829 276.447 65.712C276.973 66.4312 277.708 66.7908 278.654 66.7908C279.29 66.7908 279.822 66.6358 280.248 66.3258C280.792 65.929 281.215 65.2967 281.518 64.4287C281.821 63.5546 281.972 62.4169 281.972 61.0158C281.972 59.3481 281.818 58.1019 281.509 57.2774C281.2 56.4466 280.804 55.8608 280.322 55.5198C279.846 55.1788 279.296 55.0083 278.672 55.0083Z" fill="white"/>
<path d="M294.45 60.5136C295.642 60.7926 296.48 61.1305 296.962 61.5273C297.654 62.0914 298 62.823 298 63.7219C298 64.6705 297.62 65.4548 296.86 66.0747C295.927 66.8249 294.57 67.2 292.79 67.2H286.403V66.8559C286.984 66.8559 287.377 66.8032 287.581 66.6978C287.791 66.5862 287.936 66.4436 288.016 66.27C288.103 66.0964 288.146 65.6686 288.146 64.9867V56.8031C288.146 56.1212 288.103 55.6934 288.016 55.5198C287.936 55.34 287.791 55.1974 287.581 55.092C287.37 54.9866 286.978 54.9339 286.403 54.9339V54.5898H292.429C293.869 54.5898 294.888 54.72 295.488 54.9804C296.087 55.2346 296.56 55.619 296.906 56.1336C297.252 56.6419 297.425 57.1844 297.425 57.761C297.425 58.3685 297.206 58.911 296.767 59.3884C296.328 59.8596 295.556 60.2346 294.45 60.5136ZM291.075 60.2625C291.953 60.2625 292.599 60.1633 293.013 59.9649C293.433 59.7666 293.754 59.4876 293.977 59.128C294.199 58.7684 294.311 58.3096 294.311 57.7517C294.311 57.1937 294.199 56.738 293.977 56.3846C293.761 56.0251 293.448 55.7523 293.041 55.5663C292.633 55.3803 291.978 55.2904 291.075 55.2966V60.2625ZM291.075 60.9879V65.0332L291.066 65.4981C291.066 65.8329 291.15 66.0871 291.316 66.2607C291.489 66.4281 291.743 66.5118 292.077 66.5118C292.571 66.5118 293.025 66.4033 293.439 66.1863C293.859 65.9631 294.181 65.6438 294.403 65.2285C294.626 64.8069 294.737 64.3388 294.737 63.8242C294.737 63.2353 294.601 62.7083 294.329 62.2433C294.057 61.7722 293.683 61.4436 293.207 61.2576C292.732 61.0716 292.021 60.9817 291.075 60.9879Z" fill="white"/>
<path d="M27.0088 83.111C25.3568 82.1122 23.8259 81.2199 13.565 75.2686C10.8326 73.6846 6.66379 71.2663 4.29961 69.8952L0 67.4019L0.00726711 56.9719C0.00968942 51.2358 0.113849 45.5626 0.234964 44.3655C0.823587 38.598 1.24991 34.9343 1.34681 34.84C1.47277 34.7142 1.49457 36.8495 1.54059 53.7339L1.5745 66.4878L4.11793 67.963C9.29442 70.964 10.4644 71.6025 10.5782 71.4912C10.7115 71.3558 9.56814 66.4443 9.1733 65.4649C8.84629 64.6548 8.37636 64.6258 5.74815 65.2545C4.59029 65.5302 3.8103 65.6124 3.72067 65.4697C3.52205 65.1505 4.1252 64.0816 4.52246 64.0454C4.69929 64.0285 4.92699 63.9922 5.0263 63.9656C5.12562 63.939 5.753 63.8301 6.41913 63.7237C7.08527 63.6173 7.8701 63.407 8.1632 63.257C8.69126 62.9886 8.68157 62.9596 7.38321 60.9669C6.66136 59.8569 6.01945 58.6067 5.95889 58.1883C5.90076 57.7676 5.73362 56.7035 5.5907 55.8233C5.19586 53.4074 5.254 52.5804 5.87411 51.8597C6.25199 51.4244 6.55478 51.2769 6.8503 51.3906C7.31781 51.5695 8.4781 53.3881 8.4781 53.9394C8.4781 54.1256 8.04208 54.9333 7.50917 55.7314C6.41671 57.3685 6.32224 58.1037 7.02229 59.4724C7.60365 60.6114 7.9137 60.8387 8.09537 60.2632C8.17047 60.0262 8.67431 59.3999 9.21206 58.8703C10.3748 57.7289 10.6 57.2428 10.8786 55.2767C10.9949 54.4594 11.7603 51.9976 12.5815 49.8042C13.5771 47.1441 14.1584 45.1708 14.3304 43.8819C14.6938 41.1541 15.3793 38.9172 16.5856 36.5182C17.2808 35.1374 17.9615 33.1689 18.63 30.6032C19.7612 26.272 20.3329 24.7945 20.5969 25.5321C20.6841 25.7811 20.6575 26.9419 20.534 28.1075C20.4056 29.3336 20.4007 30.4968 20.5218 30.8643L20.735 31.5003L21.5804 30.3154C23.6127 27.4691 23.5861 27.5465 23.1476 25.3845C22.668 23.0146 21.8638 20.3715 21.5683 20.1877C21.2921 20.0184 19.4778 20.7149 18.5767 21.3364C17.3002 22.219 16.7891 23.4161 16.0091 27.3458C15.1177 31.8244 14.6477 33.8122 14.4273 34.0323C14.3377 34.1242 14.3135 33.9283 14.3789 33.5994C15.7136 26.6977 16.5202 23.3242 17.1088 22.1828C17.4213 21.5734 19.5166 20.4102 22.2005 19.3558C22.6196 19.1914 23.1937 18.8117 23.4746 18.5118L23.9882 17.9677L22.6632 15.9944C21.4496 14.1831 21.36 13.9607 21.5949 13.2932C21.9244 12.3477 22.0406 12.3694 21.9026 13.3513C21.6918 14.853 23.8404 17.0101 24.7754 16.2362C25.0613 15.9993 25.0661 15.651 24.8021 13.9582C24.2958 10.7226 24.1699 10.1422 23.947 10.0044C23.8307 9.93424 23.3923 10.4276 22.9732 11.1023C22.5542 11.777 22.1642 12.2824 22.1085 12.2292C22.0527 12.1736 22.2926 11.6778 22.6389 11.1289C23.2106 10.2268 23.2857 9.82542 23.4165 6.93559C23.5086 4.94536 23.6927 3.48472 23.9034 3.06636C24.0899 2.69637 24.882 1.92252 25.662 1.34939C26.987 0.377249 27.2123 0.297447 29.0702 0.154769L31.0613 0L32.3476 1.09789C33.0549 1.70004 33.7501 2.52951 33.893 2.94061C34.0359 3.35414 34.1546 4.70595 34.1546 5.95135C34.1546 8.19551 34.1619 8.21727 35.0024 9.1483C35.7582 9.98261 35.8503 10.2317 35.8503 11.4287C35.8503 12.7491 35.8696 12.7878 37.0323 13.6971C38.8273 15.0997 39.3263 15.9485 39.1906 17.3656L39.0768 18.5409L42.1265 18.6666C45.2949 18.7972 46.5278 18.6932 49.764 18.0282C52.7386 17.4188 53.4847 16.8021 55.1246 13.5882C55.7084 12.4468 55.9869 12.2002 57.8037 11.2111C59.3467 10.3719 59.836 9.9826 59.8554 9.58359C59.8699 9.29582 59.9499 8.00688 60.0371 6.72036C60.2308 3.83537 60.0589 3.9055 58.3245 7.40715C57.6438 8.78073 57.0431 9.86411 56.9922 9.81333C56.9413 9.76012 57.3967 8.66707 58.0023 7.38055C58.6297 6.04808 59.1045 4.68902 59.1045 4.22229C59.1045 3.12924 59.4872 2.18611 60.2551 1.38083C61.0641 0.534437 61.8732 0.532019 63.174 1.37358C64.0121 1.91527 64.1913 2.16677 64.1913 2.78826C64.1913 3.87406 63.5664 4.96712 62.7549 5.30326C62.3697 5.46286 61.941 5.88364 61.8029 6.23913C61.4129 7.24754 60.8001 9.1749 60.8001 9.3998C60.8001 9.61019 61.8175 9.45542 64.4239 8.84118C65.2838 8.64047 66.0153 8.50263 66.0517 8.5389C66.088 8.57275 66.0008 9.02255 65.8579 9.53281C65.7174 10.0455 65.6471 10.771 65.7004 11.1458C65.7561 11.5206 65.715 11.8568 65.6084 11.8955C65.3976 11.968 65.2693 22.427 65.4752 22.6326C65.6689 22.826 69.2879 23.2758 69.4405 23.1259C69.5471 23.0171 68.9391 20.8455 68.3795 19.3365C67.5874 17.2011 66.8631 15.0585 66.8704 14.8627C66.8801 14.5821 68.2487 18.0499 69.3048 21.0292C69.7215 22.2021 70.2883 23.3145 70.625 23.6168C71.7853 24.6615 71.2233 25.0412 68.021 25.3773C63.9007 25.8126 61.7569 25.6288 60.8267 24.7631C60.5385 24.4946 60.5627 24.2576 60.989 23.1622C61.2652 22.4536 61.7254 21.0583 62.0112 20.0619C62.2971 19.0656 62.6265 17.9774 62.7404 17.6437C62.8566 17.31 63.2369 16.0597 63.5858 14.8627C63.937 13.6656 64.3246 12.4371 64.4505 12.13C64.5741 11.8253 64.6758 11.3199 64.6758 11.0079V10.4397L62.3576 11.3513C61.0811 11.8519 59.9523 12.3573 59.8457 12.4734C59.7391 12.5895 59.2062 14.0259 58.6636 15.6631L57.6777 18.6424L58.6103 21.2251C59.9789 25.0097 60.9551 27.3022 61.4081 27.8028C61.7836 28.2163 61.7739 28.2792 61.2797 28.7725C59.853 30.1969 56.905 30.7579 54.1944 30.1243C51.5686 29.5101 50.9364 28.9007 51.7043 27.7303C51.8981 27.4352 52.2348 26.4873 52.4528 25.624C52.6684 24.7582 52.9639 23.5902 53.1092 23.0243C53.2546 22.4584 53.3151 21.9385 53.2425 21.8684C53.1722 21.7983 51.9562 22.115 50.5367 22.5745C49.1197 23.034 46.8984 23.6482 45.6001 23.9408C42.2185 24.705 40.5447 25.6844 39.9488 27.2466C39.7163 27.8536 39.0937 31.2319 38.1539 36.9898C37.9698 38.1216 37.6912 39.6958 37.5386 40.489C37.1777 42.3535 37.4998 43.5119 38.6335 44.4139C39.0913 44.7766 39.3602 45.1394 39.2342 45.2168C39.0962 45.3014 39.2536 46.334 39.6194 47.7632C40.1547 49.8598 41.0316 54.0628 42.2621 60.447C42.4559 61.4433 43.0082 64.6016 43.4927 67.46C43.9747 70.3184 44.4567 72.7487 44.5585 72.8575C44.7232 73.0268 55.0786 67.2206 55.8949 66.4999C56.1299 66.2919 56.205 62.6428 56.2316 49.9783C56.2486 41.038 56.3455 34.3781 56.4423 35.1761C56.5417 35.9741 56.75 37.7685 56.9026 39.1662C57.0576 40.564 57.249 42.1963 57.3265 42.7936C57.4064 43.391 57.5179 49.1222 57.576 55.5282L57.6801 67.1746L56.6361 67.8856C54.9502 69.0318 49.982 71.9725 43.3231 75.7619C39.9076 77.7086 35.7267 80.1172 34.0335 81.1183C32.3403 82.1195 30.9112 82.9369 30.8554 82.9369C30.7997 82.9369 30.3225 83.2077 29.7945 83.5414C29.2664 83.8752 28.8062 84.1436 28.7698 84.1412C28.7335 84.1388 27.9414 83.6744 27.0088 83.111ZM30.0997 79.3699C32.0375 75.6289 34.3048 69.8686 36.8119 62.3212C37.5071 60.2269 38.1296 58.5124 38.195 58.5124C38.493 58.5124 36.6545 66.5991 34.5228 74.6833C33.7283 77.6965 33.5006 79.0676 33.7913 79.0676C34.0529 79.0676 36.3274 77.8972 38.4978 76.647L40.7651 75.3387L40.5011 53.3131L39.5225 49.8018C38.2483 45.224 38.2072 45.1297 37.2019 44.3631L36.342 43.7102L35.1284 44.1455C34.4598 44.3849 33.9124 44.6702 33.9124 44.7766C33.9124 44.883 33.6847 44.9701 33.4037 44.9701C32.9096 44.9701 32.9144 44.9435 33.5418 43.8722C33.8979 43.2676 34.1498 42.6558 34.1013 42.5131C34.0529 42.3704 32.912 41.8941 31.5628 41.4539C30.2159 41.0138 28.4041 40.2061 27.5393 39.6596C25.6087 38.4432 25.2647 37.7177 25.0492 34.3998L24.8965 32.0324L26.5655 34.5715C27.4836 35.9693 28.4816 37.5122 28.7844 38.0055C29.0872 38.4964 29.528 38.9607 29.763 39.0357C30.2111 39.1783 34.6125 38.7914 34.8111 38.5907C34.9588 38.4456 32.4396 36.9946 32.0351 36.9922C31.868 36.9898 31.7323 36.8931 31.7323 36.777C31.7323 36.6609 30.7779 35.8 29.6128 34.8642C27.6241 33.2681 24.3951 30.1509 25.1921 30.5959C25.3907 30.7071 26.2652 31.2464 27.1299 31.7954C27.9947 32.3443 29.1404 33.048 29.6733 33.3576L30.6423 33.921L28.22 31.3818L31.2139 32.8691C32.8587 33.6889 34.2588 34.3055 34.3218 34.2427C34.3872 34.1774 33.4982 33.123 32.3476 31.8945C31.1994 30.6685 30.2886 29.4956 30.3298 29.29C30.417 28.8354 31.7154 28.4751 32.9071 28.5742C33.6871 28.6371 33.9027 28.8161 34.7433 30.076C35.5402 31.2706 35.7219 31.4302 35.8624 31.0433C36.0416 30.5427 36.2645 31.1521 36.8507 33.7663C37.0081 34.4748 37.2067 35.0552 37.2915 35.0552C37.4441 35.0552 38.275 31.3867 38.2726 30.7338C38.2726 30.4702 38.1999 30.4629 37.9189 30.6951C37.6161 30.9466 37.5556 30.7047 37.495 28.9757L37.4248 26.9661L35.1163 26.1995C33.8446 25.7787 31.3375 25.0847 29.545 24.6591L26.2821 23.8852L24.2546 21.8031C21.9316 19.4211 21.9462 19.3945 23.3051 23.67C24.182 26.422 24.119 27.0628 22.7794 29.1135C22.2417 29.9406 21.8008 30.816 21.8008 31.0626C21.8008 31.3069 22.8909 33.6115 24.2256 36.1845C25.9042 39.4202 26.5389 40.859 26.287 40.859C25.8534 40.859 23.1089 37.592 22.358 36.1797C21.7693 35.0745 21.6119 35.343 22.1254 36.5739C22.3047 37.0019 22.5929 37.9499 22.7625 38.6826C23.2445 40.7284 24.7342 44.5832 25.1339 44.8177C25.4004 44.9725 25.4173 45.0717 25.2018 45.2071C24.9862 45.3377 25.1388 46.0486 25.7783 47.9204C26.2555 49.3133 26.6455 50.5248 26.6455 50.6143C26.6455 51.2141 25.926 50.4112 24.3467 48.0558C23.3463 46.5589 22.5275 45.4683 22.5275 45.6303C22.5275 46.3026 23.7799 48.6217 25.272 50.7135C26.1513 51.9444 26.815 52.9504 26.7472 52.9504C26.4153 52.9504 23.993 50.4378 22.7262 48.7789C21.9389 47.7487 21.2389 46.9047 21.171 46.9047C20.9869 46.9047 19.863 49.5188 19.863 49.9445C19.863 51.023 22.2054 54.0966 23.5619 54.7979C24.463 55.2622 25.6354 55.1123 27.6289 54.2732C29.4384 53.5138 29.5619 53.5235 28.6899 54.3554C26.7278 56.2271 25.0903 56.9961 23.7048 56.6914C23.3051 56.6044 22.2029 55.8861 21.2582 55.0954C20.2869 54.2828 19.4488 53.7508 19.3301 53.8693C18.8456 54.353 18.601 70.6037 19.0781 70.6037C19.3834 70.6037 23.4504 65.4383 30.1578 56.5342C32.4227 53.5259 34.3024 51.0907 34.3363 51.1222C34.5325 51.3011 29.792 59.2427 27.5829 62.4324C27.3334 62.7927 27.1299 63.1579 27.1299 63.2425C27.1299 63.3271 26.924 63.6851 26.6745 64.0381C26.4226 64.3912 25.8122 65.4407 25.318 66.3717L24.4169 68.0645L25.6547 66.7345C26.7763 65.5278 31.0056 59.9295 31.0056 59.649C31.0056 59.5087 37.0299 50.5103 37.3521 50.1694C38.0618 49.4221 34.7578 55.9659 29.293 66.1299C26.9749 70.4417 26.1804 72.1949 25.1049 75.3725L23.775 79.2925L25.5094 80.3614L26.0762 79.6553C26.3887 79.2659 27.7888 77.2394 29.1889 75.1525C31.8898 71.1212 32.7012 70.1612 31.4562 72.4634C31.0395 73.2372 30.3177 74.5769 29.8526 75.4402C29.3899 76.3036 28.874 77.1766 28.7093 77.3749C28.5446 77.5732 28.0044 78.4679 27.5102 79.3627L26.6115 80.9878L27.4158 81.4787C27.859 81.7471 28.3387 81.9672 28.4864 81.9696C28.6318 81.9696 29.3584 80.7991 30.0997 79.3699ZM17.2057 72.8406C17.2105 71.4114 17.3244 69.0971 17.4552 67.7018C17.5884 66.3064 17.8573 63.257 18.0511 60.9306C18.7293 52.8101 19.037 50.9311 20.5436 45.6956C21.1807 43.478 21.4157 42.1891 21.4254 40.859C21.4399 38.8591 20.7059 33.8654 20.3474 33.5075C20.2045 33.3648 19.3785 34.8085 18.1431 37.3598C16.4281 40.8953 16.152 41.6498 16.0551 43.0234C15.9631 44.3583 15.6094 45.3715 13.812 49.4439C11.678 54.2756 11.678 54.2828 11.5205 56.8196C11.4357 58.2149 11.3001 59.9996 11.2202 60.7831L11.0724 62.2075L12.9836 62.0382C16.4548 61.7311 16.3434 61.7214 16.4281 62.3212C16.4717 62.621 16.416 62.8749 16.307 62.8846C16.198 62.8967 15.4132 62.9547 14.563 63.0152C13.7103 63.0756 12.7995 63.2401 12.5379 63.3804C11.9711 63.6826 11.9444 63.4988 13.3784 69.4961L14.4128 73.8273L15.6239 74.6229C16.2901 75.0582 16.9174 75.4209 17.0168 75.4282C17.1161 75.4354 17.2033 74.2698 17.2057 72.8406ZM13.0708 70.2555C11.6489 65.0901 11.3558 64.1856 10.9973 63.8398C10.6461 63.5037 10.6243 63.5666 10.7696 64.558C10.8859 65.3464 10.8592 65.5471 10.6751 65.2835C10.5371 65.0852 10.4208 64.737 10.4208 64.5121C10.4184 64.2872 10.2973 64.0309 10.1519 63.9414C9.46398 63.5158 9.50032 64.4105 10.2997 67.5906C11.5908 72.7173 11.5738 72.681 12.5355 72.5553C12.7026 72.5359 12.8383 72.6762 12.8383 72.8696C12.8383 73.0655 12.9739 73.2711 13.1411 73.3267C13.6594 73.5032 13.6328 72.2989 13.0708 70.2555ZM10.0962 61.9512C10.4426 61.7311 9.9654 59.9633 9.55845 59.9633C8.89958 59.9633 8.38847 61.4868 8.88263 61.9778C9.09579 62.193 9.74012 62.1785 10.0962 61.9512ZM7.99364 54.2441C7.99364 53.613 7.23061 52.2249 6.88422 52.2249C6.48696 52.2249 6.05579 52.9746 6.05579 53.6686C6.05579 53.9467 6.22777 54.5803 6.43609 55.0736L6.81397 55.9732L7.40501 55.2937C7.7296 54.9213 7.99364 54.4473 7.99364 54.2441ZM58.7775 29.3747C59.446 29.1764 60.1824 28.8064 60.4149 28.5501C60.817 28.1051 60.8049 28.0809 60.0298 27.9092C59.5865 27.8101 58.3535 27.6529 57.2877 27.5586L55.3499 27.3869L57.8328 27.3506C59.4969 27.3288 60.3156 27.2273 60.3156 27.0435C60.3156 26.8935 59.7004 25.1548 58.9494 23.1815L57.5857 19.5952L56.951 20.091C56.6046 20.3666 55.9918 20.727 55.5921 20.8938C54.9139 21.1743 54.8339 21.3485 54.4439 23.3508C53.6664 27.3554 53.6688 27.3143 54.1726 27.3361C54.427 27.3458 54.4924 27.4086 54.3204 27.4763C53.5138 27.8004 54.3688 28.8475 55.8779 29.3844C57.0697 29.8076 57.3168 29.8076 58.7775 29.3747ZM53.5283 26.7267C53.6518 26.4026 53.8117 25.2854 53.8868 24.248L54.02 22.3593L53.6228 23.2057C53.1795 24.1488 52.8234 25.3483 52.6369 26.5308C52.5376 27.1475 52.5957 27.3167 52.9082 27.3167C53.1238 27.3167 53.4048 27.0507 53.5283 26.7267ZM38.7134 22.7994C39.0089 22.2529 40.9638 20.5456 41.2956 20.5456C41.3998 20.5456 41.4167 20.9591 41.3368 21.467C41.2326 22.1126 41.3053 22.5503 41.5766 22.9373C41.9739 23.5031 41.9496 23.5007 44.0086 23.1017C44.6118 22.9832 48.4778 21.8684 51.7649 20.8648L53.991 20.1829L54.6305 17.8565C54.9817 16.5772 55.2312 15.2714 55.1803 14.9546C55.1052 14.4733 54.9793 14.6087 54.4124 15.7792C54.037 16.5482 53.4823 17.3414 53.1771 17.5397C52.0265 18.2942 45.8883 19.3872 44.1128 19.1551C42.2863 18.9181 39.273 18.9834 36.8192 19.3123C34.6657 19.6025 31.4344 19.6025 31.1461 19.3147C31.0734 19.2446 31.1267 18.5384 31.2648 17.7501C32.1756 12.4855 32.178 11.9849 31.3011 13.2134C30.9402 13.7237 30.6641 14.6353 30.48 15.9388C30.153 18.241 29.8889 18.6908 28.8619 18.6908C27.9366 18.6908 27.205 18.0741 26.6164 16.7973C25.8752 15.1867 26.115 14.7272 26.8998 16.2483C27.7089 17.813 28.6511 18.5989 29.2591 18.2144C29.6249 17.9846 30.0415 16.5313 30.3734 14.3186L30.526 13.2908H29.7121C28.5906 13.2908 27.4085 12.8434 27.1251 12.3138C26.7908 11.6899 26.8053 11.6536 27.6023 11.2425C28.5809 10.7371 29.3439 10.7782 30.6374 11.4045C31.6354 11.8882 31.7735 11.9027 32.115 11.5593C32.5511 11.1264 32.9289 9.69241 32.9362 8.45426C32.9411 7.71185 32.8006 7.51114 31.788 6.82193C30.4364 5.90299 30.2789 5.87155 30.2789 6.51965C30.2789 7.08552 30.073 7.11938 29.2373 6.68651C28.6269 6.36972 28.6269 6.3673 29.1307 6.05292C29.5837 5.76998 29.5934 5.71678 29.2349 5.51365C28.9515 5.35646 28.6366 5.42901 28.1642 5.76031C27.4933 6.22945 26.161 6.65023 26.161 6.39148C26.161 6.31651 26.8344 5.95619 27.658 5.58861L29.1574 4.91875L30.899 5.63698C33.4425 6.68167 34.2249 6.15449 32.5777 4.51007C32.0254 3.9587 31.8341 3.62014 32.0327 3.5476C32.5244 3.36865 30.7876 1.95154 29.8599 1.77743C28.6608 1.55253 27.2559 1.80161 26.4347 2.38683C25.7008 2.90918 23.7387 6.51965 23.7387 7.34911C23.7387 7.69009 23.8671 7.74813 24.3443 7.62963C24.9159 7.48695 24.9498 7.5329 24.9498 8.47119C24.9498 9.07575 25.1267 9.69241 25.4028 10.0406C25.8025 10.5485 25.8437 10.9523 25.7516 13.4649C25.6208 17.1455 25.6063 17.1987 24.4823 18.2603C23.5861 19.1116 23.5497 19.1938 23.8889 19.7089C24.0851 20.0087 24.9886 20.9132 25.897 21.7185L27.5466 23.1815L30.5478 23.8441C32.1974 24.2068 34.5301 24.8501 35.7291 25.2709L37.9092 26.0375L38.1684 24.6808C38.3113 23.936 38.556 23.0896 38.7134 22.7994ZM68.7114 24.601C68.9391 24.3713 69.0529 24.1101 68.9609 24.0182C68.7211 23.7788 63.9079 23.5974 62.8809 23.7909C60.6984 24.1996 63.1425 25.1476 66.1825 25.0726C67.8078 25.0315 68.3892 24.9227 68.7114 24.601ZM64.5547 22.9252C64.7 22.7897 64.8114 20.5915 64.8308 17.4502L64.8647 12.2026L64.0557 14.379C63.6124 15.5761 63.2418 16.7441 63.2345 16.9738C63.2272 17.2036 63.0674 17.8033 62.8784 18.3039C62.2971 19.854 61.5268 22.5382 61.5268 23.0219C61.5268 23.4403 61.6527 23.4669 62.9196 23.3169C63.6851 23.225 64.4214 23.0485 64.5547 22.9252ZM56.6361 19.4646C57.1182 19.0148 57.0407 17.9 56.4327 16.5555L55.8852 15.3463L55.4468 17.4018C54.863 20.1393 54.8606 20.1006 55.6527 19.9144C56.0184 19.8298 56.4617 19.6267 56.6361 19.4646ZM38.4736 18.6424C38.6504 18.5312 38.8539 17.9846 38.929 17.4309C39.0574 16.4853 38.9993 16.3596 38.0255 15.4334C37.042 14.4999 35.6734 13.535 35.3319 13.5326C35.2447 13.5326 35.2762 13.9824 35.3997 14.5314C35.5232 15.0803 35.5717 15.5833 35.5087 15.6486C35.2423 15.9122 33.6241 14.6305 33.1906 13.8107L32.723 12.9281L32.7109 14.292C32.7012 15.6534 32.7037 15.6607 34.1522 16.998C35.1817 17.9508 35.9035 18.4078 36.6351 18.5699C38.0013 18.8746 38.0982 18.8794 38.4736 18.6424ZM58.402 14.5531C58.6539 13.818 58.8622 13.1312 58.8622 13.0296C58.8622 12.812 56.5199 13.5979 56.1928 13.9244C55.9773 14.1396 56.4084 15.7139 56.968 16.7586C57.2199 17.2277 57.2417 17.2205 57.5857 16.5675C57.7795 16.1976 58.1477 15.2907 58.402 14.5531ZM35.3949 11.4166C35.4457 10.2389 35.3609 10.0382 34.4671 9.2402C33.3964 8.28256 33.1857 8.2608 33.1857 9.11928C33.1857 9.74078 34.7433 12.043 35.1841 12.0696C35.2834 12.0768 35.3779 11.7818 35.3949 11.4166ZM23.9034 8.65014C23.8259 8.45668 23.7702 8.51472 23.7581 8.79765C23.7484 9.05157 23.8041 9.19425 23.884 9.11445C23.9664 9.03465 23.9736 8.82425 23.9034 8.65014ZM60.9551 7.54741C61.0326 7.31526 61.2458 6.78082 61.4323 6.36246C61.8271 5.4677 61.8683 4.82686 61.5268 4.82686C61.3936 4.82686 61.2845 4.72771 61.2845 4.6068C61.2845 4.4883 61.5147 4.44719 61.7932 4.52216C62.1953 4.62614 62.285 4.55843 62.2147 4.19569C62.1227 3.71688 61.3572 3.48472 60.8897 3.79668C60.5046 4.05543 60.1776 7.97061 60.5409 7.97061C60.6911 7.97061 60.8776 7.77956 60.9551 7.54741ZM26.4323 2.17402C28.3847 0.761753 30.2644 0.972143 32.2483 2.82212L33.4279 3.92485V3.25982C33.4279 2.81244 33.1276 2.29493 32.5123 1.67828C31.7396 0.90685 31.3762 0.735153 30.1966 0.590057C28.2951 0.353067 27.3407 0.546528 26.0423 1.43887C24.4193 2.55369 23.9809 3.11231 23.9809 4.06269V4.89941L24.7076 3.89583C25.1097 3.34446 25.8848 2.57062 26.4323 2.17402ZM63.4138 2.28284C62.9245 1.77743 62.8518 1.76292 62.5732 2.13049C62.3019 2.48598 62.2656 2.46421 62.2365 1.92494L62.205 1.32037L62.0112 1.92494C61.66 3.02042 61.7569 3.3759 62.5466 3.85472L63.3217 4.32628L63.6342 3.58145C63.9176 2.90917 63.8958 2.78584 63.4138 2.28284ZM61.5462 2.72297C61.7884 2.08213 61.6067 0.957633 61.2579 0.957633C60.7468 0.957633 60.0734 1.96847 60.0734 2.73748C60.0734 3.47989 60.1267 3.54034 60.6959 3.43152C61.069 3.36139 61.4105 3.07604 61.5462 2.72297ZM8.83902 53.1922C9.69168 48.433 10.4983 44.3486 10.8181 43.1564C11.2613 41.5192 13.0151 37.5702 13.2137 37.7685C13.347 37.8991 12.1964 41.0114 11.8451 41.4709C11.4575 41.9811 10.4256 45.9906 10.1568 48.0461C9.78131 50.8852 9.32106 53.0398 8.97225 53.5888C8.73487 53.966 8.71306 53.9032 8.83902 53.1922ZM66.2794 13.402C66.0468 12.795 66.1146 12.6379 66.4005 13.1288C66.5434 13.3706 66.6064 13.6197 66.5458 13.6826C66.4828 13.7454 66.3641 13.6197 66.2794 13.402ZM28.6487 8.52923C28.8837 8.46635 29.2107 8.47119 29.3754 8.53648C29.5401 8.60419 29.3463 8.65497 28.9467 8.65014C28.547 8.64288 28.4137 8.58968 28.6487 8.52923ZM27.8227 4.36981C28.4452 3.81361 29.2228 3.71929 29.7945 4.12556C30.0706 4.32144 29.9664 4.35046 29.356 4.24648C28.8401 4.157 28.3241 4.24406 27.9026 4.49314L27.251 4.88006L27.8227 4.36981ZM26.8877 3.49681C27.222 3.30577 27.6023 3.151 27.7355 3.151C27.8687 3.151 27.7064 3.30577 27.3722 3.49681C27.0379 3.68786 26.6576 3.84263 26.5243 3.84263C26.3911 3.84263 26.5534 3.68786 26.8877 3.49681ZM28.8909 2.96721C29.1259 2.90434 29.4529 2.90917 29.6176 2.97447C29.7824 3.04218 29.5886 3.09296 29.1889 3.08813C28.7892 3.08087 28.656 3.02767 28.8909 2.96721Z" fill="white"/>
</svg>
